<?xml version="1.0" encoding="utf-8"?>
<!-- Generator: Adobe Illustrator 16.0.0, SVG Export Plug-In . SVG Version: 6.00 Build 0)  -->
<!DOCTYPE svg PUBLIC "-//W3C//DTD SVG 1.1//EN" "http://www.w3.org/Graphics/SVG/1.1/DTD/svg11.dtd">
<svg version="1.1" id="Layer_1" xmlns="http://www.w3.org/2000/svg" xmlns:xlink="http://www.w3.org/1999/xlink" x="0px" y="0px"
	 width="100px" height="60.187px" viewBox="0 237.407 100 60.187" enable-background="new 0 237.407 100 60.187"
	 xml:space="preserve">
<title>EXPORT - UP</title>
<path fill="#FFFFFF" d="M58.183,268.008l37.288-29.693c-1.163-0.596-2.451-0.907-3.758-0.908H8.287
	c-1.307,0-2.595,0.312-3.758,0.908l37.288,29.693C46.598,271.845,53.402,271.845,58.183,268.008z"/>
<path fill="#FFFFFF" d="M98.654,241.177l-28.995,23.089l29.208,29.208c0.742-1.265,1.133-2.704,1.133-4.169v-43.611
	C100.001,244.09,99.533,242.52,98.654,241.177z"/>
<path fill="#FFFFFF" d="M1.345,241.177C0.467,242.52-0.001,244.09,0,245.694v43.611c0,1.465,0.391,2.904,1.133,4.169l29.208-29.208
	L1.345,241.177z"/>
<path fill="#FFFFFF" d="M60.812,271.311c-6.316,5.07-15.309,5.07-21.625,0l-5.522-4.397L4.118,296.459
	c1.264,0.742,2.703,1.133,4.169,1.135h83.426c1.467,0,2.905-0.393,4.168-1.135l-29.546-29.546L60.812,271.311z"/>
</svg>
