<?xml version="1.0" encoding="utf-8"?>
<!-- Generator: Adobe Illustrator 16.0.0, SVG Export Plug-In . SVG Version: 6.00 Build 0)  -->
<!DOCTYPE svg PUBLIC "-//W3C//DTD SVG 1.1//EN" "http://www.w3.org/Graphics/SVG/1.1/DTD/svg11.dtd">
<svg version="1.1" id="Layer_1" xmlns="http://www.w3.org/2000/svg" xmlns:xlink="http://www.w3.org/1999/xlink" x="0px" y="0px"
	 width="200px" height="200px" viewBox="0 0 200 200" enable-background="new 0 0 200 200" xml:space="preserve">
<path id="instagram-instagram" opacity="0.5" fill="#FFFFFF" d="M154.439,89.106h-12.32c0.895,3.485,1.428,7.126,1.428,10.891
	c0,24.056-19.498,43.55-43.548,43.55c-24.048,0-43.545-19.494-43.545-43.55c0-3.765,0.532-7.405,1.431-10.891H45.562v59.884
	c0,3.001,2.438,5.439,5.45,5.439h97.975c3.014,0,5.453-2.438,5.453-5.439V89.106z M154.439,51.006c0-3.005-2.439-5.443-5.453-5.443
	h-16.325c-3.005,0-5.442,2.438-5.442,5.443v16.333c0,3.005,2.438,5.443,5.442,5.443h16.325c3.014,0,5.453-2.438,5.453-5.443V51.006z
	 M99.999,72.782c-15.032,0-27.217,12.184-27.217,27.215c0,15.032,12.185,27.221,27.217,27.221c15.033,0,27.22-12.188,27.22-27.221
	C127.219,84.966,115.032,72.782,99.999,72.782 M154.439,170.765H45.562c-9.016,0-16.327-7.313-16.327-16.335V45.562
	c0-9.017,7.312-16.327,16.327-16.327h108.877c9.017,0,16.326,7.311,16.326,16.327V154.43
	C170.766,163.451,163.456,170.765,154.439,170.765"/>
</svg>
