<?xml version="1.0" encoding="utf-8"?>
<!-- Generator: Adobe Illustrator 16.0.0, SVG Export Plug-In . SVG Version: 6.00 Build 0)  -->
<!DOCTYPE svg PUBLIC "-//W3C//DTD SVG 1.1//EN" "http://www.w3.org/Graphics/SVG/1.1/DTD/svg11.dtd">
<svg version="1.1" id="Layer_1" xmlns="http://www.w3.org/2000/svg" xmlns:xlink="http://www.w3.org/1999/xlink" x="0px" y="0px"
	 width="150px" height="25.737px" viewBox="0 0 150 25.737" enable-background="new 0 0 150 25.737" xml:space="preserve">
<g>
	<path fill-rule="evenodd" clip-rule="evenodd" fill="#FFFFFF" d="M134.229,4.371c0.378,0.224,0.742,0.227,1.138,0.007
		c0.188-0.104,0.436-0.106,0.658-0.143c0.041-0.007,0.104,0.025,0.135,0.059c0.185,0.201,0.364,0.407,0.544,0.613
		c0.341,0.392,0.396,0.844,0.347,1.348c-0.044,0.46-0.003,0.928-0.007,1.393c-0.001,0.096-0.028,0.193-0.053,0.288
		c-0.02,0.08-0.094,0.176-0.069,0.23c0.092,0.197-0.055,0.415-0.013,0.54c0.139,0.417-0.125,0.818,0.026,1.25
		c0.075-0.013,0.153-0.032,0.232-0.037c0.147-0.01,0.393,0.038,0.423-0.025c0.102-0.203,0.146-0.443,0.172-0.673
		c0.031-0.275,0.093-0.354,0.337-0.313c0.048,0.008,0.109,0.021,0.137,0.055c0.063,0.08-0.027,0.302,0.175,0.241
		c0.114-0.034,0.201-0.173,0.292-0.273c0.059-0.064,0.104-0.142,0.148-0.217c0.195-0.325,0.183-0.352-0.26-0.478
		c0.101-0.068,0.174-0.163,0.248-0.163c0.327-0.001,0.513-0.187,0.643-0.453c0.097-0.196,0.196-0.366,0.463-0.348
		c0.057,0.004,0.134-0.091,0.179-0.155c0.267-0.379,0.587-0.631,1.085-0.659c0.222-0.013,0.435-0.191,0.651-0.295
		c0.015-0.007,0.036-0.026,0.034-0.038c-0.068-0.526,0.313-0.289,0.529-0.302c0.282-0.018,0.552,0.007,0.623-0.384
		c0.018-0.096,0.246-0.171,0.391-0.22c0.343-0.117,0.717-0.167,1.035-0.328c0.59-0.298,1.201-0.378,1.844-0.325
		c0.365,0.031,0.73,0.062,1.095,0.105c0.099,0.012,0.21,0.048,0.284,0.111c0.349,0.29,0.686,0.593,1.022,0.888
		c-0.068,0.101-0.173,0.192-0.196,0.301c-0.031,0.151-0.002,0.315,0.003,0.474c0.013,0.396,0.014,0.398-0.365,0.486
		c-0.182,0.042-0.307,0.122-0.206,0.327c0.097,0.198-0.045,0.189-0.163,0.272c-0.446,0.317-0.948,0.329-1.46,0.36
		c-0.521,0.031-1.047,0.038-1.542,0.255c-0.188,0.082-0.425,0.054-0.612,0.136c-0.765,0.335-1.417,0.818-1.872,1.537
		c-0.046,0.072-0.106,0.143-0.127,0.222c-0.094,0.363,0.099,0.576,0.441,0.435c0.389-0.16,0.656-0.042,0.959,0.189
		c0.237,0.181,0.479,0.407,0.729,0.514c0.401,0.172,0.885,0.144,1.317,0.259c0.528,0.142,1.069,0.177,1.594,0.427
		c0.491,0.235,0.679,0.7,1.079,0.971l-0.009-0.01c0.055,0.062,0.103,0.133,0.165,0.186c0.259,0.215,0.596,0.364,0.6,0.782
		c0.001,0.074,0.086,0.146,0.131,0.22c0.229,0.387,0.507,0.755,0.668,1.168c0.133,0.344,0.224,0.722,0.062,1.124
		c-0.161,0.4-0.211,0.844-0.354,1.253c-0.064,0.185-0.203,0.379-0.363,0.488c-0.509,0.351-0.9,0.902-1.589,0.966
		c-0.089,0.008-0.181,0.098-0.252,0.169c-0.421,0.423-0.95,0.618-1.517,0.74c-0.066,0.015-0.143,0.002-0.202,0.027
		c-0.46,0.198-0.653,0.223-1.269,0.223c-0.275,0-0.551,0.054-0.826,0.082c-0.361,0.037-0.724,0.108-1.084,0.099
		c-0.207-0.007-0.411-0.145-0.617-0.224l-0.001-0.002c-0.016-0.135-0.062-0.22-0.229-0.211c-0.25,0.015-0.524,0.108-0.68-0.23
		c-0.031-0.067-0.26-0.035-0.389-0.073c-0.054-0.016-0.116-0.097-0.119-0.15c-0.003-0.049,0.06-0.119,0.111-0.148
		c0.058-0.033,0.139-0.021,0.204-0.043c0.47-0.156,0.514-0.289,0.176-0.652c-0.175-0.188-0.127-0.392-0.117-0.594
		c0.002-0.044,0.121-0.112,0.191-0.118c0.223-0.021,0.389-0.06,0.462-0.329c0.068-0.247,0.329-0.308,0.562-0.316
		c0.525-0.021,1.06,0.048,1.559-0.186c0.798,0.154,1.466-0.35,2.223-0.445c0.644-0.082,0.787-0.75,0.421-1.275
		c-0.319-0.457-0.776-0.623-1.247-0.8c-0.276-0.104-0.553-0.227-0.84-0.277c-0.211-0.036-0.457-0.012-0.659,0.062
		c-0.27,0.099-0.477,0.141-0.595-0.183c-0.051-0.14-0.119-0.107-0.237-0.066c-0.626,0.219-1.239,0.115-1.845-0.105
		c-0.114-0.042-0.275-0.113-0.354-0.067c-0.429,0.247-0.641-0.09-0.787-0.34c-0.122-0.21-0.239-0.251-0.403-0.179
		c-0.333,0.148-0.572,0.001-0.812-0.193c-0.065-0.053-0.153-0.154-0.202-0.139c-0.401,0.121-0.485-0.203-0.524-0.434
		c-0.057-0.326-0.347-0.424-0.499-0.647c-0.03-0.042-0.195-0.019-0.281,0.016c-0.042,0.018-0.063,0.13-0.064,0.2
		c-0.006,0.415,0.088,0.857-0.026,1.237c-0.125,0.416-0.159,0.793-0.072,1.206c0.019,0.091-0.036,0.202-0.07,0.3
		c-0.055,0.158-0.173,0.333,0.148,0.328c0.028,0,0.092,0.12,0.084,0.177c-0.127,0.961-0.163,1.926-0.161,2.894
		c0,0.288-0.072,0.567-0.184,0.85c-0.133,0.336-0.126,0.722-0.226,1.078c-0.101,0.36-0.297,0.546-0.607,0.537
		c-0.042-0.002-0.109-0.04-0.121-0.075c-0.028-0.085,0.258-0.16,0.021-0.255c-0.091-0.036-0.229,0.03-0.31-0.015
		c-0.213-0.116-0.355-0.3-0.404-0.552c-0.018-0.09-0.064-0.22-0.13-0.243c-0.063-0.022-0.181,0.052-0.25,0.111
		c-0.127,0.109-0.222,0.365-0.399,0.252c-0.11-0.069-0.136-0.333-0.133-0.509c0.008-0.533,0.073-1.066,0.065-1.599
		c-0.005-0.268-0.121-0.533-0.188-0.799c-0.071-0.287-0.14-0.574-0.218-0.858c-0.03-0.111-0.1-0.213-0.124-0.324
		c-0.014-0.064,0.003-0.184,0.046-0.206c0.28-0.151,0.277-0.418,0.286-0.672c0.012-0.37-0.001-0.74,0.006-1.11
		c0.002-0.137-0.007-0.292,0.051-0.407c0.108-0.217,0.027-0.415-0.098-0.532c-0.248-0.233-0.181-0.458-0.082-0.708
		c0.058-0.146,0.12-0.292,0.168-0.441c0.018-0.055,0.022-0.164-0.002-0.176c-0.278-0.137-0.156-0.294-0.047-0.47
		c0.107-0.173-0.025-0.468-0.24-0.567c-0.122-0.057-0.408,0.113-0.413,0.308c-0.007,0.24-0.095,0.359-0.281,0.502
		c-0.148,0.114-0.225,0.348-0.288,0.543c-0.085,0.262-0.123,0.54-0.188,0.809c-0.05,0.206,0.004,0.482-0.33,0.514
		c-0.02,0.001-0.048,0.111-0.041,0.167c0.035,0.327,0.06,0.657,0.127,0.979c0.046,0.219,0.165,0.421,0.235,0.637
		c0.132,0.398,0.063,0.54-0.337,0.744c-0.266,0.136-0.587,0.091-0.735-0.168c-0.115-0.202-0.183-0.188-0.357-0.087
		c-0.178,0.102-0.388,0.158-0.59,0.2c-0.109,0.021-0.301,0.009-0.339-0.056c-0.147-0.253-0.361-0.347-0.626-0.431
		c-0.136-0.043-0.233-0.245-0.323-0.391c-0.257-0.414-0.295-0.437-0.759-0.335c-0.017,0.004-0.031,0.018-0.048,0.021
		c-0.361,0.069-0.479-0.054-0.412-0.429c-0.158-0.008-0.43,0.032-0.456-0.032c-0.109-0.258-0.285-0.021-0.407-0.095
		c-0.131-0.079-0.209-0.04-0.267,0.12c-0.135,0.373-0.297,0.734-0.212,1.15c0.011,0.052-0.058,0.133-0.107,0.182
		c-0.205,0.202-0.105,0.336,0.154,0.468c-0.125,0.02-0.19,0.024-0.252,0.042c-0.061,0.018-0.117,0.05-0.176,0.075
		c0.03,0.06,0.052,0.164,0.092,0.172c0.35,0.065,0.378,0.242,0.224,0.524c-0.03,0.055,0.047,0.161,0.057,0.246
		c0.009,0.08,0.023,0.211-0.018,0.237c-0.451,0.291-0.252,0.839-0.487,1.202c-0.16,0.245,0.088,0.515-0.129,0.767
		c-0.148,0.171-0.299,0.329-0.54,0.264c-0.204-0.055-0.265-0.19-0.208-0.501c-0.198-0.022-0.396-0.045-0.662-0.076
		c0.125-0.185,0.218-0.32,0.31-0.456c-0.282-0.17-0.441-0.138-0.552,0.133c-0.032,0.079-0.013,0.221-0.061,0.243
		c-0.13,0.062-0.301,0.134-0.422,0.096c-0.168-0.054-0.121-0.236-0.044-0.357c0.115-0.181,0.256-0.346,0.408-0.547
		c-0.233-0.138-0.576-0.167-0.552-0.532c0.005-0.068,0.027-0.166,0.075-0.197c0.444-0.291,0.483-0.38,0.314-0.809
		c-0.273-0.697-0.339-1.86-0.147-2.608c0.025-0.1,0.086-0.217,0.058-0.302c-0.169-0.516,0.009-1.003,0.095-1.498
		c0.012-0.067,0.035-0.167,0.002-0.202c-0.265-0.271-0.162-0.635-0.241-0.95c-0.079-0.311-0.149-0.605-0.377-0.844
		c-0.043-0.045-0.101-0.14-0.083-0.169c0.155-0.255-0.065-0.435-0.123-0.642c-0.058-0.208-0.273-0.394-0.038-0.62
		c0.019-0.017,0.023-0.078,0.009-0.094c-0.332-0.368-0.012-0.346,0.229-0.426c0.288-0.097,0.435-0.53,0.372-1.028
		c0.093,0.027,0.168,0.044,0.241,0.07c0.151,0.052,0.301,0.214,0.454,0.003c0.764,0.098,1.604-0.003,2.089,0.817
		c0.039,0.067,0.132,0.143,0.202,0.145c0.216,0.007,0.306,0.147,0.389,0.306c0.017,0.031,0.016,0.084,0.039,0.096
		c0.479,0.235,0.493,0.832,0.885,1.134c0.05,0.038,0.082,0.125,0.132,0.134c0.532,0.095,0.532,0.092,0.807,0.534
		c0.313-0.354,0.63-0.713,0.947-1.07c0.054-0.06,0.116-0.161,0.174-0.16c0.382,0.003,0.479-0.225,0.552-0.55
		c0.041-0.181,0.195-0.377,0.354-0.484c0.585-0.393,0.814-1.024,1.128-1.6c0.044-0.081-0.019-0.214,0.012-0.309
		c0.027-0.084,0.116-0.214,0.175-0.213c0.303,0.005,0.229-0.097,0.097-0.247c-0.003-0.004,0.144-0.174,0.167-0.163
		c0.213,0.108,0.335-0.032,0.348-0.179c0.029-0.316,0.366-0.405,0.447-0.681c0.02-0.065,0.242-0.149,0.302-0.112
		c0.311,0.194,0.396-0.054,0.523-0.23L134.229,4.371z"/>
	<path fill-rule="evenodd" clip-rule="evenodd" fill="#FFFFFF" d="M3.146,25.166c0.056,0.207-0.009,0.333-0.234,0.375
		c-0.101,0.019-0.195,0.073-0.292,0.114c-0.324,0.136-0.332,0.124-0.505-0.192c-0.072-0.131-0.185-0.247-0.301-0.344
		c-0.177-0.146-0.355-0.271-0.37-0.535c-0.007-0.119-0.079-0.189-0.253-0.141c-0.158,0.045-0.281-0.093-0.166-0.255
		c0.095-0.133,0.101-0.234,0.052-0.379c-0.023-0.069,0.004-0.181,0.049-0.243c0.369-0.512,0.565-1.309,0.417-1.863
		c-0.089-0.335-0.074-0.665-0.063-1.006c0.016-0.498-0.033-0.998-0.027-1.497c0.003-0.255,0.054-0.512,0.103-0.764
		c0.049-0.253,0.177-0.502,0.173-0.752c-0.008-0.576-0.087-1.15-0.112-1.727c-0.022-0.519-0.025-1.039-0.007-1.558
		c0.02-0.57,0.092-1.139,0.102-1.709c0.005-0.269-0.092-0.538-0.125-0.809c-0.052-0.415-0.063-0.837-0.142-1.246
		c-0.043-0.222-0.032-0.358,0.161-0.493c0.084-0.059,0.11-0.203,0.162-0.309c-0.104-0.049-0.21-0.141-0.315-0.14
		c-0.306,0.002-0.504-0.137-0.729-0.34C0.496,9.152,0.18,9.049,0.076,8.719C0.05,8.637-0.023,8.526,0.007,8.478
		c0.249-0.415,0.217-0.983,0.739-1.253c0.475-0.246,0.922-0.545,1.383-0.82c0.029-0.017,0.066-0.019,0.1-0.028
		C2.942,6.176,3.65,5.951,4.371,5.782C4.999,5.635,5.642,5.468,6.28,5.461c0.68-0.007,1.366,0.092,1.957,0.562
		c0.296,0.235,0.46,0.54,0.695,0.803c0.159,0.177,0.34,0.356,0.548,0.465c0.578,0.302,0.862,0.822,1.118,1.377
		c0.046,0.1,0.106,0.198,0.178,0.281c0.379,0.433,0.336,0.984,0.367,1.49c0.017,0.285-0.201,0.581-0.3,0.876
		c-0.206,0.614-0.483,1.185-0.88,1.705c-0.332,0.434-0.708,0.816-1.164,1.103c-0.312,0.196-0.615,0.382-0.862,0.663
		c-0.133,0.151-0.33,0.245-0.496,0.367c-0.181,0.134-0.359,0.271-0.541,0.405c-0.352,0.26-0.704,0.521-1.061,0.773
		c-0.043,0.03-0.127-0.003-0.187,0.014c-0.38,0.106-0.76,0.214-1.136,0.334c-0.038,0.012-0.068,0.112-0.067,0.172
		c0.003,0.45,0.005,0.9,0.029,1.349c0.017,0.301,0.049,0.313-0.024,0.414c-0.144,0.198,0.012,0.347,0.096,0.467
		c0.18,0.259,0.346,0.469,0.087,0.789c-0.088,0.108-0.085,0.354-0.03,0.501c0.162,0.437-0.051,0.782-0.185,1.164
		c-0.069,0.196-0.04,0.45,0.018,0.658c0.039,0.141,0.028,0.242,0.012,0.381c-0.048,0.424-0.085,0.861-0.034,1.281
		c0.032,0.259,0.016,0.429-0.182,0.594c-0.09,0.075-0.131,0.21-0.222,0.284c-0.062,0.052-0.169,0.058-0.257,0.063
		c-0.111,0.007-0.224-0.016-0.335-0.01C3.18,24.8,3.062,24.911,3.146,25.166z M4.926,13.35c1.118-0.64,2.063-1.458,2.85-2.451
		c0.222-0.281,0.285-0.619,0.061-0.977c-0.354-0.568-0.839-1-1.365-1.391C6.344,8.437,6.135,8.388,5.976,8.408
		C5.578,8.458,5.18,8.535,4.797,8.651C4.542,8.729,4.228,8.728,4.075,9.019c0.189,0.187,0.389,0.365,0.565,0.563
		c0.134,0.151,0.335,0.327,0.34,0.497c0.018,0.626,0.082,1.255-0.07,1.885c-0.094,0.385-0.078,0.798-0.098,1.199
		C4.809,13.219,4.88,13.278,4.926,13.35z"/>
	<path fill-rule="evenodd" clip-rule="evenodd" fill="#FFFFFF" d="M13.029,7.968c0.004-0.083,0.005-0.167,0.012-0.251
		c0.021-0.264-0.119-0.614,0.342-0.643c0.114-0.448,0.693-0.156,0.861-0.534c0.01-0.021,0.166-0.007,0.229,0.03
		c0.216,0.127,0.428,0.105,0.66,0.048c0.372-0.091,0.749-0.167,1.127-0.227c0.214-0.034,0.417-0.084,0.657-0.044
		c0.312,0.052,0.649-0.073,0.977-0.076c0.615-0.007,1.212-0.102,1.802-0.266c0.129-0.036,0.272-0.018,0.41-0.021
		c0.148-0.003,0.298-0.003,0.447-0.004c0.049,0,0.135-0.012,0.142,0.005c0.119,0.31,0.459,0.249,0.66,0.405
		c0.146,0.114,0.251,0.292,0.346,0.457c0.034,0.06-0.014,0.167-0.023,0.252c-0.01,0.098-0.013,0.196-0.028,0.293
		c-0.038,0.234,0.048,0.534-0.317,0.604c-0.052,0.01-0.13,0.088-0.13,0.136c0,0.276-0.192,0.307-0.396,0.4
		C20.2,8.807,19.566,8.82,18.92,8.874c-0.708,0.058-1.404,0.253-2.105,0.39c-0.034,0.007-0.063,0.043-0.095,0.043
		c-0.442,0.005-0.537,0.253-0.581,0.656c-0.022,0.204-0.164,0.425-0.165,0.661c-0.001,0.182,0.165,0.375,0.341,0.359
		c0.208-0.019,0.433-0.047,0.614-0.141c0.288-0.15,0.574-0.149,0.886-0.16c0.428-0.015,0.852-0.134,1.279-0.204
		c0.321-0.052,0.643-0.099,0.965-0.145c0.083-0.012,0.178,0.015,0.249-0.018c0.295-0.134,0.579-0.362,0.898-0.047
		c0.018,0.018,0.068,0.005,0.103,0.003c0.349-0.022,0.342-0.022,0.375,0.274c0.006,0.058,0.08,0.147,0.131,0.153
		c0.119,0.015,0.243-0.012,0.387-0.023c0.081,0.198,0.015,0.443,0.209,0.654c0.127,0.139,0.075,0.442-0.099,0.632
		c-0.286,0.313-0.601,0.58-1.035,0.671c-0.647,0.137-1.3,0.258-1.937,0.436c-0.754,0.211-1.492,0.483-2.241,0.714
		c-0.194,0.06-0.405,0.1-0.606,0.091c-0.419-0.019-0.664,0.165-0.696,0.574c-0.047,0.591,0.137,0.788,0.737,0.812
		c0.752,0.029,1.504,0.062,2.256,0.105c0.208,0.013,0.42,0.052,0.62,0.114c0.614,0.194,1.215,0.437,1.837,0.6
		c0.399,0.104,0.521,0.361,0.584,0.703c0.019,0.101,0.006,0.282,0.044,0.292c0.462,0.12,0.312,0.593,0.531,0.867
		c-0.38,0.187-0.668,0.52-1.132,0.523c-0.113,0.001-0.229,0.142-0.337,0.228c-0.203,0.161-0.391,0.233-0.67,0.122
		c-0.842-0.337-1.743-0.463-2.624-0.659c-0.051-0.012-0.105-0.011-0.158-0.014c-0.736-0.034-1.473-0.061-2.208-0.104
		c-0.419-0.025-0.836-0.075-1.254-0.118c-0.12-0.013-0.599-0.406-0.706-0.562c-0.069-0.1-0.128-0.255-0.222-0.282
		c-0.522-0.153-0.361-0.581-0.28-0.857c0.161-0.542,0.055-1.066,0.047-1.599c-0.004-0.304-0.02-0.603,0.16-0.879
		c0.069-0.106,0.084-0.259,0.09-0.392c0.024-0.577,0.06-1.156,0.037-1.732c-0.006-0.161-0.006-0.397-0.21-0.513
		c-0.026-0.015-0.061-0.07-0.053-0.084c0.139-0.241,0.055-0.412-0.148-0.565c-0.027-0.021-0.012-0.151,0.025-0.193
		c0.264-0.295,0.123-0.644,0.123-0.965c0-0.201-0.019-0.401-0.018-0.604c0.002-0.218,0.058-0.36,0.182-0.516
		c0.031-0.039-0.016-0.141-0.027-0.214L13.029,7.968z"/>
	<path fill-rule="evenodd" clip-rule="evenodd" fill="#FFFFFF" d="M28.246,13.771c-0.167,0.285-0.308,0.522-0.445,0.762
		c-0.024,0.042-0.055,0.125-0.042,0.135c0.367,0.285,0.061,0.482-0.111,0.724c0.102,0.055,0.208,0.091,0.289,0.159
		c0.135,0.112,0.201,0.278,0.067,0.416c-0.191,0.196-0.109,0.354-0.03,0.564c0.067,0.182,0.067,0.417,0.016,0.607
		c-0.065,0.246-0.026,0.365,0.264,0.362c-0.19,0.244-0.461,0.376-0.507,0.673c-0.368,0.14-0.642,0.403-0.922,0.666
		c-0.06,0.057-0.249,0.025-0.349-0.023c-0.17-0.084-0.22-0.364-0.489-0.313c-0.01,0.002-0.064-0.096-0.053-0.134
		c0.089-0.297-0.204-0.382-0.328-0.528c-0.248-0.293-0.321-0.606-0.106-0.909c0.054-0.074,0.123-0.224,0.092-0.259
		c-0.264-0.304-0.071-0.676-0.169-1.004c-0.071-0.238-0.01-0.504-0.21-0.723c-0.059-0.063,0.006-0.261,0.042-0.39
		c0.101-0.365,0.242-0.722,0.311-1.092c0.025-0.136-0.067-0.346-0.315-0.276c-0.16-0.28,0.268-0.074,0.225-0.274
		c-0.037-0.169-0.036-0.347-0.065-0.519c-0.011-0.065-0.047-0.134-0.091-0.185c-0.12-0.139-0.044-0.223,0.03-0.361
		c0.128-0.238,0.188-0.514,0.264-0.777c0.016-0.057,0.005-0.167-0.031-0.187c-0.373-0.209-0.187-0.432-0.001-0.62
		c0.129-0.131,0.189-0.214-0.011-0.301c-0.174-0.075-0.207-0.184-0.19-0.372c0.039-0.433-0.051-0.881,0.194-1.286
		c0.033-0.054,0.038-0.144,0.019-0.206c-0.097-0.309-0.073-0.524,0.298-0.641c0.112-0.035,0.096-0.282,0.273-0.419
		c0.483-0.374,1.121-0.502,1.525-0.993c0.042-0.051,0.179-0.044,0.268-0.033c0.333,0.042,0.667,0.114,0.922-0.203
		c0.03-0.037,0.082-0.067,0.128-0.08c0.907-0.234,1.724-0.102,2.469,0.514c0.216,0.179,0.435,0.468,0.801,0.396
		c0.021-0.004,0.081,0.059,0.075,0.077c-0.116,0.397,0.114,0.743,0.153,1.113c0.054,0.506,0.175,1.016,0.042,1.531
		c-0.057,0.219-0.1,0.445-0.109,0.67c-0.003,0.095,0.106,0.19,0.147,0.292c0.035,0.086,0.046,0.182,0.068,0.272
		c-0.071-0.025-0.16-0.032-0.209-0.08c-0.152-0.147-0.246-0.048-0.247,0.084c0,0.422-0.257,0.711-0.475,1.027
		c-0.217,0.316-0.424,0.639-0.628,0.964c-0.032,0.051-0.053,0.164-0.026,0.188c0.3,0.262,0.328,0.676,0.592,0.979
		c0.408,0.469,0.836,0.917,1.251,1.378c0.623,0.692,1.171,1.453,1.773,2.166c0.159,0.188,0.248,0.361,0.252,0.606
		c0.007,0.336,0.065,0.671,0.075,1.006c0.006,0.198-0.155,0.252-0.328,0.267c-0.432,0.038-0.636,0.073-0.953,0.298
		c-0.245,0.173-0.375,0.058-0.579-0.07c-0.636-0.4-0.887-1.087-1.295-1.656c-0.182-0.254-0.379-0.5-0.584-0.735
		c-0.738-0.844-1.475-1.688-2.228-2.517C28.813,14.246,28.533,14.031,28.246,13.771z M29.665,8.289
		c-0.042,0.02-0.201,0.075-0.337,0.163c-0.663,0.431-1.02,1.054-1.14,1.828c-0.061,0.394,0.136,0.574,0.518,0.457
		c0.075-0.023,0.188-0.063,0.231-0.029c0.227,0.178,0.435,0.108,0.623-0.039c0.172-0.134,0.421-0.282,0.454-0.458
		c0.084-0.452,0.589-0.844,0.229-1.368c-0.016-0.022,0.008-0.068,0.007-0.103C30.237,8.339,30.194,8.297,29.665,8.289z"/>
	<path fill-rule="evenodd" clip-rule="evenodd" fill="#FFFFFF" d="M90.223,17.376c-0.362-0.201-0.513-0.46-0.353-0.895
		c0.064-0.173-0.045-0.411-0.078-0.618c-0.107-0.65-0.291-1.301-0.296-1.952c-0.003-0.417-0.188-0.8-0.122-1.212
		c-0.318-0.425-0.204-0.887-0.12-1.348c0.013-0.066-0.005-0.14-0.021-0.208c-0.089-0.39-0.203-0.774-0.264-1.168
		c-0.038-0.252-0.056-0.512,0.095-0.768c0.089-0.151,0.087-0.367,0.093-0.555c0.008-0.249-0.216-0.287-0.385-0.371
		c-0.278-0.139-0.293-0.424-0.34-0.673c-0.059-0.317,0.025-0.623,0.166-0.914c0.039-0.081,0.046-0.177,0.065-0.267
		c0.01-0.046,0.001-0.124,0.026-0.136c0.49-0.239,0.87-0.713,1.487-0.686c0.23,0.01,0.488,0.013,0.414-0.358
		c-0.004-0.021,0.113-0.096,0.172-0.094c0.082,0.002,0.164,0.053,0.246,0.083c0.001,0,1.021,0.394,1.021,0.394
		c0.082-0.011,0.186,0.006,0.243-0.038c0.508-0.383,1.096-0.287,1.665-0.291c0.26-0.002,0.507,0.029,0.764-0.11
		c0.138-0.075,0.369-0.01,0.548,0.034c0.2,0.049,0.39,0.144,0.584,0.221c0.296,0.119,0.581,0.053,0.872-0.034
		c0.693-0.207,0.734-0.184,1.126,0.413c0.031,0.046,0.156,0.021,0.204,0.065c0.131,0.118,0.533-0.168,0.437,0.29
		c-0.004,0.017,0.093,0.07,0.147,0.08c0.1,0.017,0.203,0.014,0.269,0.018c0.17,0.461-0.124,0.761-0.278,1.098
		c-0.03,0.066-0.127,0.127-0.203,0.143c-0.715,0.144-1.427,0.286-2.16,0.339c-0.885,0.065-1.78,0.105-2.634,0.404
		c-0.197,0.069-0.41,0.093-0.617,0.132c-0.381,0.071-0.425,0.179-0.512,0.531c-0.1,0.404-0.043,0.851-0.306,1.216
		c-0.03,0.042-0.021,0.149,0.013,0.188c0.036,0.041,0.136,0.064,0.188,0.044c0.769-0.288,1.6-0.315,2.37-0.55
		C95.486,9.6,96.22,9.671,96.95,9.572c0.293-0.04,0.578-0.125,0.87-0.171c0.271-0.043,0.56-0.125,0.814-0.071
		c0.212,0.045,0.388,0.262,0.574,0.411c0.065,0.052,0.111,0.129,0.17,0.191c0.088,0.093,0.273,0.229,0.255,0.267
		c-0.079,0.16-0.197,0.32-0.342,0.424c-0.117,0.084-0.292,0.089-0.441,0.129c0.256,0.374,0.245,0.358-0.116,0.607
		c-0.227,0.156-0.534,0.296-0.392,0.726c-0.188-0.056-0.351-0.095-0.506-0.152c-0.157-0.058-0.303-0.089-0.429,0.057l0.009-0.005
		c-0.166,0.04-0.417-0.063-0.43,0.25c0,0.003-0.18,0.029-0.198-0.002c-0.109-0.181-0.251-0.105-0.408-0.108
		c-0.392-0.008-0.718,0.115-1.048,0.31c-0.162,0.096-0.469,0.021-0.565,0.141c-0.178,0.221-0.432,0.066-0.562,0.174
		c-0.514,0.433-1.208,0.581-1.67,1.073c-0.078,0.083-0.03,0.292-0.028,0.443c0.003,0.151,0.052,0.308,0.026,0.453
		c-0.045,0.254-0.308,0.48-0.043,0.77c0.048,0.052-0.025,0.232-0.067,0.346c-0.076,0.207-0.17,0.408-0.259,0.61
		c-0.012,0.028-0.038,0.051-0.058,0.076c-0.286-0.246-0.382,0.282-0.638,0.157c-0.129,0.171-0.325,0.328-0.369,0.52
		c-0.056,0.245-0.002,0.521,0.03,0.78c0.023,0.192,0.042,0.189-0.114,0.454c-0.087-0.11-0.211-0.204-0.244-0.323
		c-0.062-0.226-0.062-0.477-0.409-0.336c-0.05-0.137-0.1-0.273-0.15-0.41c0.022-0.005,0.044-0.01,0.065-0.014
		c-0.008-0.002-0.019-0.007-0.023-0.003C90.243,17.354,90.234,17.365,90.223,17.376z"/>
	<path fill-rule="evenodd" clip-rule="evenodd" fill="#FFFFFF" d="M46.133,18.003c-0.22,0.142-0.361,0.439-0.727,0.281
		c-0.088-0.038-0.303,0.14-0.418,0.259c-0.271,0.281-0.41,0.322-0.695,0.088c-0.375-0.309-0.729-0.641-1.096-0.959
		c-0.276-0.24-0.57-0.462-0.834-0.714c-0.3-0.285-0.636-0.53-0.854-0.905c-0.104-0.18-0.333-0.285-0.498-0.433
		c-0.438-0.394-0.874-0.792-1.302-1.182c-0.166,0.146-0.311,0.274-0.456,0.402c-0.012,0.021-0.025,0.044-0.038,0.065
		c0.013-0.021,0.025-0.044,0.038-0.065c0.069,0.045,0.2,0.093,0.198,0.135c-0.021,0.501,0.149,0.999-0.031,1.51
		c-0.072,0.205,0.049,0.475,0.067,0.717c0.013,0.166-0.032,0.312-0.219,0.375c-0.271,0.09-0.325,0.206-0.042,0.366
		c0.039,0.021,0.053,0.086,0.08,0.129c0.036,0.059,0.073,0.116,0.11,0.174c-0.072,0.007-0.144,0.008-0.215,0.021
		c-0.064,0.012-0.14,0.018-0.187,0.055c-0.123,0.099-0.169,0.074-0.206-0.074c-0.044-0.184-0.147-0.105-0.213-0.017
		c-0.151,0.202-0.29,0.415-0.45,0.646c-0.135-0.33-0.272-0.585-0.615-0.642c-0.147-0.024-0.102-0.186-0.141-0.243
		c-0.238-0.357-0.13-0.731-0.159-1.103c-0.011-0.146,0.22-0.335-0.041-0.453c0.03-0.041,0.054-0.11,0.09-0.118
		c0.261-0.051,0.302-0.18,0.199-0.416c-0.109-0.251-0.27-0.515-0.018-0.78c-0.252-0.183,0.19-0.579-0.22-0.735
		c-0.03-0.012-0.008-0.301,0.066-0.408c0.105-0.152,0.182-0.243-0.01-0.379c-0.198-0.141-0.1-0.334,0.013-0.443
		c0.281-0.271,0.359-0.554,0.187-0.911c-0.043-0.09-0.033-0.206-0.05-0.31c-0.011-0.067-0.011-0.181-0.044-0.192
		c-0.471-0.164-0.335-0.718-0.643-0.993c-0.08-0.071-0.057-0.262-0.073-0.399c-0.032-0.272,0.034-0.561-0.156-0.807
		c-0.036-0.046-0.032-0.138-0.02-0.203c0.102-0.54,0.202-1.08,0.319-1.617c0.047-0.213,0.041-0.388-0.062-0.597
		c-0.198-0.403,0.06-0.81,0.065-1.219c0-0.028,0.032-0.077,0.056-0.081c0.416-0.07,0.319-0.361,0.297-0.638
		c-0.005-0.059,0.184-0.189,0.191-0.183c0.244,0.22,0.44-0.018,0.647-0.068c0.375-0.09,0.39-0.097,0.406,0.295
		c0.008,0.196,0.161,0.221,0.246,0.173c0.44-0.251,0.624,0.129,0.887,0.325c0.24,0.178,0.487,0.346,0.732,0.517
		c0.011,0.008,0.041,0.008,0.048,0c0.331-0.389,0.322,0.059,0.423,0.182c0.201,0.242,0.254,0.63,0.669,0.65
		c0.375,0.568,1.062,0.796,1.459,1.321c0.201,0.265,0.496,0.569,0.327,0.992c-0.016,0.039,0.053,0.106,0.065,0.164
		c0.022,0.105,0.059,0.218,0.041,0.319c-0.066,0.352-0.111,0.718-0.247,1.044c-0.09,0.214-0.302,0.397-0.5,0.539
		c-0.107,0.077-0.255,0.062-0.264,0.257c-0.007,0.151-0.123,0.191-0.27,0.15c-0.071-0.02-0.195-0.043-0.216-0.012
		c-0.08,0.118-0.207,0.287-0.171,0.384c0.134,0.364,0.323,0.707,0.499,1.054c0.011,0.021,0.089,0.015,0.135,0.009
		c0.323-0.038,0.476,0.154,0.574,0.42c0.024,0.064,0.033,0.184,0.062,0.188c0.479,0.066,0.483,0.591,0.799,0.813
		c0.511,0.358,1.004,0.742,1.524,1.087c0.412,0.272,0.818,0.538,1.095,1.005c-0.3,0.122-0.285,0.353-0.163,0.591
		c0.054,0.107,0.21,0.155-0.054,0.221c-0.25,0.061,0.098,0.259-0.011,0.393L46.133,18.003z M39.965,10.077
		c0.204-0.042,0.414-0.066,0.611-0.128c0.231-0.073,0.262-0.251,0.06-0.396c-0.264-0.189-0.542-0.361-0.832-0.506
		c-0.097-0.049-0.233-0.177-0.373-0.021c-0.125,0.141-0.262,0.518-0.175,0.616C39.443,9.852,39.592,10.149,39.965,10.077z"/>
	<path fill-rule="evenodd" clip-rule="evenodd" fill="#FFFFFF" d="M86.312,13.359c-0.37,0.196-0.37,0.196-0.007,0.467
		c-0.254,0.134-0.238,0.134-0.24,0.438c0,0.148-0.057,0.303-0.114,0.442c-0.07,0.17-0.241,0.326-0.242,0.489
		c-0.003,0.461-0.369,0.703-0.538,1.055c-0.158,0.331-0.447,0.511-0.639,0.785c-0.243,0.349-0.652,0.442-0.964,0.684
		c-0.049,0.037-0.134,0.04-0.201,0.039c-0.345-0.004-0.689-0.015-1.034-0.023c-0.052-0.001-0.113-0.018-0.156,0.004
		c-0.804,0.392-1.666,0.292-2.511,0.272c-0.612-0.015-1.227-0.127-1.711-0.555c-0.231-0.205-0.408-0.471-0.622-0.697
		c-0.143-0.151-0.296-0.218-0.174-0.524c0.098-0.244-0.048-0.614-0.155-0.902c-0.158-0.422-0.117-0.818,0.008-1.229
		c0.049-0.163,0.091-0.341,0.079-0.508c-0.022-0.342,0.083-0.627,0.289-0.889c0.036-0.046,0.068-0.118,0.061-0.172
		c-0.071-0.466,0.167-0.903,0.105-1.379c-0.032-0.242,0.13-0.513,0.219-0.765c0.027-0.077,0.098-0.193,0.154-0.197
		c0.52-0.032,0.48-0.479,0.556-0.789c0.115-0.472,0.411-0.833,0.881-0.929c0.052-0.01,0.103-0.042,0.152-0.042
		c0.306,0.007,0.418-0.54,0.809-0.28c0.29-0.107,0.6-0.181,0.867-0.329c0.635-0.352,1.308-0.393,1.998-0.291
		c0.269,0.04,0.526,0.155,0.786,0.242c0.045,0.015,0.11,0.066,0.11,0.101c0.001,0.458,0.553,0.665,0.514,1.137
		c0.331,0.302,0.301,0.847,0.735,1.088c0.065,0.036,0.12,0.208,0.089,0.276c-0.13,0.288,0.109,0.36,0.266,0.476
		c-0.092,0.108-0.245,0.213-0.232,0.291c0.025,0.149,0.009,0.386,0.259,0.397c0.166,0.007,0.188,0.097,0.209,0.234
		c0.047,0.298,0.286,0.562,0.121,0.903c-0.031,0.065,0.104,0.204,0.149,0.315c0.048,0.119,0.079,0.246,0.117,0.369L86.312,13.359z
		 M79.861,14.243c0.009,0.178,0.008,0.231,0.015,0.283c0.012,0.087,0.027,0.173,0.043,0.26c0.053,0.307,0.17,0.453,0.468,0.461
		c0.514,0.014,1.013,0.236,1.552,0.031c0.223-0.085,0.475-0.043,0.583-0.33c0.021-0.054,0.152-0.117,0.204-0.099
		c0.327,0.123,0.368-0.128,0.398-0.32c0.051-0.325-0.144-0.692,0.182-0.966c-0.023-0.317-0.041-0.636-0.072-0.953
		c-0.027-0.279-0.046-0.562-0.113-0.832c-0.057-0.231-0.146-0.47-0.279-0.664c-0.161-0.232-0.342-0.234-0.585-0.054
		c-0.266,0.197-0.51,0.425-0.779,0.618c-0.574,0.412-1.031,0.916-1.278,1.587C80.066,13.625,79.948,13.99,79.861,14.243z"/>
	<path fill-rule="evenodd" clip-rule="evenodd" fill="#FFFFFF" d="M73.408,12.631c-0.166,0.042-0.268,0.06-0.364,0.094
		c-0.465,0.165-0.917,0.277-1.43,0.141c-0.232-0.062-0.524,0.105-0.79,0.166c-0.202,0.047-0.403,0.097-0.606,0.135
		c-0.154,0.028-0.313,0.031-0.467,0.059c-0.303,0.055-0.591,0.144-0.917,0.06c-0.196-0.05-0.461-0.1-0.636,0.126
		c-0.02,0.025-0.06,0.033-0.088,0.054c-0.116,0.083-0.284-0.182-0.36,0.034c-0.092,0.258-0.186,0.531-0.194,0.8
		c-0.01,0.29,0.096,0.36,0.395,0.357c0.267-0.003,0.525-0.009,0.763,0.141c0.054,0.033,0.137,0.032,0.206,0.03
		c0.842-0.024,1.686-0.079,2.528-0.067c0.467,0.007,0.987-0.021,1.27,0.513c0.061,0.115,0.192,0.191,0.295,0.29
		c-0.124,0.167-0.242,0.312-0.345,0.467c-0.123,0.187-0.288,0.371-0.043,0.601c0.037,0.034,0.002,0.227-0.054,0.265
		c-0.281,0.191-0.578,0.359-0.875,0.527c-0.056,0.031-0.146,0.054-0.2,0.03c-0.361-0.154-0.693,0.007-1.02,0.109
		c-0.104,0.032-0.154,0.103-0.303,0.063c-0.419-0.109-0.851-0.185-1.282-0.22c-0.234-0.02-0.479,0.058-0.715,0.113
		c-0.19,0.046-0.343,0.077-0.545-0.033c-0.183-0.1-0.439-0.078-0.664-0.088c-0.35-0.017-0.701-0.253-0.833-0.579
		c-0.058-0.145-0.114-0.29-0.174-0.434c-0.14-0.329-0.18-0.611-0.004-0.988c0.191-0.408,0.229-0.916,0.225-1.379
		c-0.001-0.24,0.184-0.413,0.125-0.635c-0.064-0.242,0.233-0.44,0.032-0.724c-0.123-0.171-0.105-0.454-0.119-0.688
		c-0.012-0.203,0.016-0.409,0.031-0.613c0.005-0.067,0.037-0.133,0.035-0.199c-0.006-0.241-0.154-0.447-0.028-0.735
		c0.074-0.168-0.15-0.467-0.24-0.708c-0.006-0.017-0.017-0.034-0.016-0.05c0.039-0.52-0.072-1.06,0.211-1.548
		c0.04-0.069,0.088-0.152,0.083-0.225c-0.016-0.223,0.119-0.279,0.273-0.411c0.37-0.316,0.719-0.159,1.051-0.051
		c0.266,0.087,0.425-0.001,0.549-0.169c0.623-0.851,1.561-0.812,2.457-0.891c0.811-0.072,1.632,0.169,2.44-0.083
		c0.164-0.051,0.349-0.03,0.524-0.043c0.277-0.021,0.554-0.046,0.831-0.063c0.411-0.024,0.781,0.125,1.136,0.301
		c0.225,0.111,0.202,0.345,0.186,0.561c-0.014,0.184-0.015,0.369-0.027,0.553c-0.005,0.082,0.006,0.188-0.04,0.239
		c-0.121,0.134-0.125,0.258-0.094,0.433c0.06,0.339-0.129,0.53-0.485,0.462c-0.649-0.123-1.306-0.054-1.958-0.124
		c-0.326-0.035-0.699-0.04-1.01,0.182c-0.095,0.067-0.226,0.122-0.34,0.121c-0.461-0.005-0.919,0.002-1.353,0.179
		c-0.427,0.174-0.865,0-1.297,0.065c-0.162,0.024-0.243,0.033-0.263,0.229c-0.011,0.112-0.141,0.226-0.242,0.312
		c-0.13,0.11-0.331,0.168-0.23,0.402c0.087,0.204,0.221,0.383,0.458,0.383c0.429,0,0.858-0.05,1.288-0.049
		c0.472,0.001,0.934-0.119,1.415-0.055c0.506,0.068,1.016,0.059,1.52,0.206c0.285,0.084,0.378,0.268,0.403,0.475
		c0.029,0.243,0.076,0.531-0.06,0.742C73.242,12.081,73.282,12.34,73.408,12.631z"/>
	<path fill-rule="evenodd" clip-rule="evenodd" fill="#FFFFFF" d="M110.542,11.537c0.274-0.219,0.625-0.186,0.517-0.518
		c-0.063-0.194-0.184-0.369-0.267-0.531c0.091-0.044,0.258-0.071,0.312-0.163c0.092-0.157,0.01-0.277-0.177-0.361
		c-0.09-0.041-0.181-0.232-0.161-0.335c0.075-0.397,0.055-0.779-0.091-1.15c-0.139-0.354,0.123-0.549,0.266-0.789
		c0.044-0.004,0.08-0.019,0.104-0.008c0.187,0.083,0.37,0.17,0.555,0.256c0.175-0.289,0.516-0.473,0.518-0.873
		c0.001-0.272-0.096-0.568,0.148-0.803c0.022-0.021-0.046-0.13-0.064-0.2c-0.023-0.095-0.086-0.227-0.047-0.278
		c0.046-0.061,0.185-0.075,0.28-0.069c0.097,0.006,0.188,0.08,0.285,0.09c0.135,0.014,0.348,0.051,0.396-0.016
		c0.229-0.318,0.447-0.096,0.646-0.006c0.243,0.111,0.463,0.282,0.662,0.063c0.193,0.222,0.34,0.41,0.506,0.576
		c0.275,0.274,0.296,0.439,0.03,0.724c-0.191,0.207-0.256,0.413-0.067,0.649c0.12,0.149,0.118,0.249-0.089,0.301
		c-0.043,0.011-0.105,0.053-0.111,0.088c-0.046,0.285-0.131,0.575-0.107,0.855c0.027,0.342-0.004,0.622-0.394,0.832
		c0.193,0.065,0.332,0.083,0.434,0.155c0.066,0.046,0.125,0.181,0.105,0.256c-0.055,0.225-0.18,0.435-0.221,0.661
		c-0.04,0.217-0.009,0.448-0.009,0.689c0.13,0.058,0.27,0.121,0.418,0.188c-0.076,0.224-0.127,0.462-0.236,0.669
		c-0.097,0.185-0.101,0.305,0.043,0.465c0.123,0.137,0.25,0.302,0.105,0.52c-0.039,0.06-0.044,0.184-0.008,0.245
		c0.22,0.374-0.075,0.734-0.02,1.104c0.005,0.031-0.161,0.132-0.177,0.118c-0.117-0.102-0.245-0.119-0.302,0.02
		c-0.047,0.112-0.059,0.301,0.007,0.387c0.146,0.192,0.343,0.352,0.536,0.502c0.051,0.04,0.232,0.02,0.24-0.007
		c0.084-0.284,0.354-0.145,0.517-0.241c0.138-0.083,0.249-0.005,0.29,0.125c0.113,0.365,0.363,0.341,0.649,0.259
		c0.083-0.023,0.188-0.056,0.258-0.024c0.188,0.084,0.341,0.139,0.471-0.094c0.022-0.041,0.187-0.023,0.277,0
		c0.165,0.044,0.333,0.172,0.484,0.15c0.118-0.017,0.212-0.206,0.315-0.319c0.124-0.137,0.25-0.179,0.411-0.047
		c0.06,0.049,0.2,0.103,0.225,0.077c0.234-0.242,0.486-0.071,0.738-0.074c0.297-0.003,0.592-0.124,0.888-0.195
		c0.27-0.064,0.537-0.137,0.808-0.194c0.062-0.014,0.171-0.004,0.197,0.035c0.101,0.148,0.217,0.24,0.395,0.3
		c0.068,0.023,0.076,0.23,0.122,0.395c0.148-0.022,0.317-0.047,0.485-0.072c0.176-0.026,0.305,0.082,0.26,0.224
		c-0.057,0.181-0.006,0.443-0.284,0.52c-0.077,0.021-0.169,0.095-0.197,0.167c-0.259,0.655-0.823,0.49-1.32,0.501
		c-0.05,0.002-0.102-0.04-0.15-0.037c-0.267,0.012-0.498-0.069-0.786,0.153c-0.59,0.455-1.331,0.569-2.079,0.548
		c-0.065-0.002-0.14-0.017-0.195,0.009c-0.422,0.19-0.88,0.164-1.322,0.208c-0.9,0.09-1.807,0.139-2.687,0.37
		c-0.306,0.08-0.537,0.008-0.773-0.195c-0.245-0.21-0.49-0.439-0.837-0.492c-0.062-0.01-0.14-0.062-0.169-0.116
		c-0.115-0.222-0.314-0.254-0.532-0.278c-0.228-0.026-0.33-0.133-0.38-0.399c-0.076-0.404-0.135-0.775,0.028-1.173
		c0.084-0.202,0.106-0.431-0.071-0.645c-0.118-0.142-0.224-0.342,0.134-0.384c0.163-0.019,0.124-0.206,0.059-0.303
		c-0.188-0.278-0.269-0.54-0.122-0.882c0.061-0.14-0.066-0.356-0.095-0.54c-0.024-0.153-0.075-0.324-0.031-0.46
		c0.064-0.199,0.031-0.362-0.007-0.557C111.023,11.87,110.981,11.604,110.542,11.537z"/>
	<path fill-rule="evenodd" clip-rule="evenodd" fill="#FFFFFF" d="M57.133,10.291c0.127,0,0.214-0.051,0.17-0.188
		c-0.027-0.083-0.091-0.208-0.151-0.216c-0.598-0.075-0.796-0.569-1.067-0.989c-0.027-0.043-0.071-0.126-0.059-0.137
		c0.337-0.309-0.107-0.667,0.067-0.978c0.041-0.071,0.133-0.111,0.197-0.171c0.198-0.187,0.338-0.402,0.476-0.645
		c0.165-0.291,0.405-0.64,0.85-0.625c0.034,0.001,0.097-0.01,0.097-0.019c0.026-0.491,0.291-0.158,0.461-0.132
		c0.049,0.007,0.121,0.066,0.138,0.052c0.154-0.137,0.269-0.292,0.522-0.112c0.141,0.101,0.367,0.097,0.558,0.11
		c0.298,0.02,0.598,0.011,0.897,0.021c0.527,0.016,1.055,0.03,1.582,0.057c0.13,0.006,0.275,0.123,0.342-0.091
		c0.055,0.039,0.109,0.111,0.166,0.113c0.421,0.014,0.843,0.021,1.265,0.011c0.05-0.001,0.103-0.11,0.147-0.175
		c0.271-0.398,0.613-0.383,0.871,0.041c0.026,0.043,0.062,0.124,0.083,0.121c0.37-0.061,0.514,0.228,0.742,0.421
		c0.123,0.103,0.396,0.021,0.599,0.041c0.046,0.004,0.084,0.081,0.126,0.125c-0.037,0.031-0.072,0.083-0.111,0.088
		c-0.123,0.015-0.247,0.006-0.369,0.016c-0.224,0.018-0.481-0.009-0.416,0.363c0.009,0.054-0.129,0.148-0.215,0.2
		c-0.196,0.121-0.276,0.256-0.248,0.512c0.04,0.356-0.087,0.469-0.449,0.505c-0.191,0.019-0.386,0.011-0.579-0.001
		c-0.484-0.03-0.967-0.092-1.451-0.096c-0.336-0.002-0.675,0.065-1.01,0.112c-0.449,0.064-0.898,0.132-1.344,0.215
		c-0.126,0.023-0.258,0.086-0.356,0.169c-0.149,0.126-0.305,0.267-0.397,0.434c-0.22,0.399-0.242,0.809-0.17,1.281
		c0.06,0.396-0.009,0.83,0.033,1.249c0.007,0.074-0.059,0.156-0.125,0.316c0.227-0.015,0.393-0.017,0.556-0.04
		c0.22-0.032,0.442-0.125,0.657-0.11c0.277,0.02,0.472-0.073,0.706-0.206c0.229-0.129,0.541-0.156,0.814-0.152
		c0.302,0.004,0.612,0.066,0.9,0.158c0.162,0.051,0.156-0.096,0.211-0.102c0.086-0.009,0.219,0.129,0.266,0.1
		c0.277-0.178,0.502,0.07,0.754,0.065c0.116-0.002,0.233,0.011,0.348,0.026c0.073,0.01,0.163,0.019,0.206,0.064
		c0.026,0.027,0,0.145-0.039,0.187c-0.095,0.101-0.211,0.18-0.336,0.281c0.139,0.047,0.257,0.086,0.375,0.126
		c-0.054,0.123-0.084,0.265-0.166,0.365c-0.245,0.3-0.253,0.293-0.013,0.673c0.091,0.145-0.005,0.336-0.135,0.27
		c-0.209-0.107-0.322,0.012-0.471,0.087c-0.078,0.039-0.163,0.075-0.249,0.087c-0.426,0.056-0.854,0.106-1.281,0.15
		c-0.392,0.04-0.808-0.094-1.167,0.191c-0.067,0.053-0.205,0.022-0.311,0.021c-0.26-0.004-0.47,0.086-0.663,0.269
		c-0.149,0.14-0.333,0.265-0.525,0.333c-0.289,0.105-0.495,0.248-0.673,0.521c-0.136,0.21-0.176,0.28,0.016,0.457
		c0.201,0.187,0.417,0.389,0.185,0.735c-0.077,0.115-0.013,0.386,0.074,0.534c0.152,0.26,0.125,0.487,0.029,0.744
		c-0.083,0.224-0.148,0.456-0.206,0.688c-0.013,0.055,0.016,0.145,0.058,0.183c0.15,0.136,0.107,0.259,0.04,0.422
		c-0.078,0.19-0.103,0.385,0.034,0.596c0.135,0.208,0.203,0.463,0.278,0.703c0.026,0.085,0.012,0.203-0.029,0.284
		c-0.069,0.139-0.149,0.295-0.269,0.383c-0.306,0.223-0.48,0.485-0.479,0.879c0.001,0.208-0.429,0.418-0.684,0.298
		c-0.241-0.114-0.647-0.092-0.608-0.57c0.011-0.134-0.258-0.276-0.282-0.433c-0.021-0.141,0.196-0.32,0.17-0.455
		c-0.067-0.348,0.185-0.609,0.183-0.934c-0.001-0.183,0.114-0.366,0.106-0.547c-0.017-0.373,0.127-0.704,0.209-1.052
		c0.027-0.116,0.077-0.267,0.03-0.354c-0.318-0.596-0.346-1.211-0.183-1.85c-0.217-0.294,0.041-0.593,0.02-0.915
		c-0.162,0-0.293,0-0.451,0c0.025-0.269,0.222-0.534-0.065-0.739c-0.012-0.009-0.024-0.036-0.019-0.048
		c0.184-0.43-0.084-0.861,0.003-1.292c0.031-0.154,0.077-0.316,0.06-0.467c-0.033-0.292,0.168-0.458,0.343-0.583
		c0.116-0.083,0.263-0.126,0.253-0.276c-0.013-0.204-0.199-0.144-0.331-0.16c-0.048-0.006-0.093-0.035-0.144-0.126
		c0.081,0,0.161,0.005,0.241-0.001c0.242-0.019,0.236-0.223,0.275-0.385c0.038-0.156-0.059-0.221-0.195-0.252
		c-0.102-0.024-0.207-0.044-0.3-0.089c-0.047-0.022-0.07-0.095-0.104-0.145c0.354-0.142,0.04-0.414,0.118-0.609L57.133,10.291z"/>
	<path fill-rule="evenodd" clip-rule="evenodd" fill="#FFFFFF" d="M105.098,9.199c0.134-0.011,0.269-0.022,0.401-0.034
		c0.022,0.032,0.06,0.06,0.059,0.087c0,0.361,0.003,0.723-0.014,1.084c-0.009,0.169-0.059,0.337-0.088,0.506
		c-0.022,0.133-0.07,0.271-0.055,0.4c0.013,0.107,0.073,0.192-0.068,0.255c-0.035,0.016-0.077,0.111-0.063,0.129
		c0.121,0.158,0.336,0.324,0.17,0.521c-0.177,0.208,0.03,0.375-0.008,0.505c-0.099,0.339,0.028,0.553,0.223,0.789
		c0.05,0.06,0.004,0.202-0.007,0.306c-0.02,0.204-0.141,0.407,0.011,0.609c0.017,0.023,0.021,0.081,0.004,0.1
		c-0.271,0.312-0.059,0.692-0.149,1.03c-0.021,0.081-0.01,0.172-0.04,0.248c-0.225,0.584,0.078,0.971,0.501,1.111
		c0.066,0.022,0.139,0.028,0.203,0.055c0.149,0.062,0.292,0.032,0.352,0.315c0.058,0.275,0.438,0.485,0.809,0.467
		c0.188-0.009,0.352-0.032,0.359,0.238c0.009,0.3-0.024,0.383-0.327,0.42c-0.269,0.033-0.43,0.097-0.394,0.418
		c0.025,0.226-0.209,0.291-0.355,0.322c-0.425,0.092-0.859,0.144-1.292,0.192c-0.272,0.03-0.531,0.014-0.799,0.164
		c-0.18,0.102-0.469,0.032-0.704,0.003c-0.184-0.021-0.349-0.06-0.468,0.125c-0.108,0.167-0.24,0.167-0.408,0.078
		c-0.214-0.112-0.451-0.185-0.657-0.308c-0.093-0.055-0.146-0.188-0.199-0.295c-0.092-0.185-0.172-0.377-0.255-0.566
		c-0.026-0.06-0.087-0.156-0.067-0.178c0.205-0.22,0.037-0.413-0.023-0.617c-0.023-0.08-0.028-0.172-0.016-0.254
		c0.026-0.182,0.109-0.36-0.019-0.54c-0.022-0.032-0.022-0.113,0.002-0.143c0.247-0.301,0.03-0.608-0.007-0.9
		c-0.026-0.208-0.229-0.396-0.016-0.611c-0.229-0.259,0.01-0.567-0.076-0.821c-0.097-0.285,0.204-0.513,0.059-0.791
		c-0.009-0.017,0.211-0.152,0.36-0.259c-0.133-0.036-0.256-0.045-0.353-0.102c-0.093-0.053-0.158-0.154-0.235-0.233
		c0.074-0.061,0.151-0.177,0.223-0.173c0.273,0.012,0.252-0.18,0.264-0.343c0.022-0.314,0.007-0.645-0.165-0.905
		c-0.172-0.261-0.154-0.497-0.065-0.753c0.049-0.144,0.072-0.265-0.06-0.378c-0.025-0.022-0.034-0.118-0.017-0.131
		c0.298-0.207-0.042-0.578,0.206-0.803c0.027-0.025-0.019-0.181-0.072-0.235c-0.302-0.303-0.123-0.569,0.05-0.835
		c0.076-0.116,0.201-0.209,0.245-0.333c0.067-0.185,0.365-0.377,0.021-0.596c-0.044-0.028-0.002-0.197,0.01-0.3
		c0.006-0.048,0.057-0.096,0.052-0.139c-0.017-0.123-0.268-0.269-0.102-0.33c0.176-0.066,0.455-0.003,0.629,0.103
		c0.325,0.198,0.308,0.228,0.455-0.107c0.014-0.031,0.034-0.058,0.09-0.15c0.213,0.136,0.441,0.252,0.631,0.414
		c0.118,0.102,0.196,0.155,0.359,0.104c0.263-0.082,0.537,0.154,0.812,0c0.015-0.008,0.108,0.074,0.103,0.086
		c-0.121,0.269,0.171,0.542-0.058,0.847c-0.123,0.165-0.024,0.5-0.016,0.758C105.046,8.941,105.076,9.058,105.098,9.199z"/>
	<path fill-rule="evenodd" clip-rule="evenodd" fill="#FFFFFF" d="M50.042,9.546c0.106-0.123,0.21-0.186,0.29,0.021
		c0.118,0.308,0.114,0.302,0.453,0.201c0.095-0.028,0.207-0.021,0.307-0.007c0.423,0.06,0.804,0.313,1.25,0.273
		c0.017-0.001,0.05,0.002,0.05,0.006c0.03,0.384,0.437,0.321,0.627,0.524c0.148,0.158,0.349,0.286,0.549,0.374
		c0.208,0.09,0.319,0.208,0.413,0.422c0.106,0.241,0.324,0.432,0.492,0.646c0.042,0.053,0.117,0.112,0.114,0.165
		c-0.028,0.527-0.079,1.052-0.105,1.58c-0.01,0.207-0.17,0.415,0.049,0.636c0.088,0.089-0.073,0.231-0.216,0.295
		c-0.351,0.155-0.341,0.161-0.331,0.624c0.002,0.087-0.069,0.181-0.12,0.264c-0.229,0.375-0.33,0.835-0.726,1.099
		c-0.145,0.097-0.301,0.178-0.443,0.277c-0.14,0.099-0.329,0.186-0.393,0.324c-0.229,0.502-0.709,0.609-1.133,0.622
		c-0.599,0.019-1.221-0.083-1.638-0.627c-0.03-0.039-0.082-0.068-0.13-0.086c-0.615-0.227-0.779-0.759-0.861-1.32
		c-0.044-0.296-0.225-0.47-0.414-0.646c-0.124-0.116-0.152-0.198-0.131-0.391c0.049-0.448,0.049-0.918-0.245-1.313
		c-0.07-0.095-0.152-0.203-0.253-0.246c-0.2-0.085-0.335-0.168-0.272-0.427c0.017-0.066-0.083-0.207-0.162-0.241
		c-0.326-0.144-0.212-0.418-0.182-0.637c0.022-0.166,0.26-0.289,0.114-0.504c0.421-0.021,0.115-0.66,0.561-0.661
		c0.013,0,0.028-0.021,0.038-0.035c0.1-0.143,0.091-0.429,0.396-0.301c0.009-0.423,0.434-0.301,0.644-0.444
		c0.207-0.141,0.556-0.07,0.841-0.101c0.075-0.008,0.213-0.061,0.212-0.064c-0.093-0.361,0.189-0.273,0.365-0.311l0.001,0.038
		L50.042,9.546z M50.982,15.06c0.109-0.048,0.2-0.069,0.265-0.121c0.383-0.305,0.542-0.76,0.77-1.168
		c0.021-0.038,0.014-0.11-0.008-0.152c-0.173-0.317-0.325-0.653-0.541-0.94c-0.182-0.243-0.498-0.28-0.703-0.164
		c-0.145,0.082-0.539,0.802-0.461,0.933c0.124,0.208,0.063,0.372-0.04,0.535c-0.099,0.156-0.034,0.243,0.08,0.35
		c0.188,0.177,0.362,0.368,0.538,0.558C50.922,14.934,50.944,14.994,50.982,15.06z"/>
	<path fill-rule="evenodd" clip-rule="evenodd" fill="#FFFFFF" d="M104.164,0c0.474,0.028,0.852,0.165,1.139,0.507
		c0.152,0.182,0.345,0.341,0.455,0.545c0.193,0.36,0.036,0.755-0.009,1.122c-0.042,0.338-0.208,0.667-0.353,0.983
		c-0.13,0.286-0.284,0.568-0.663,0.599c-0.07,0.006-0.146,0.075-0.202,0.132c-0.449,0.456-1.544,0.564-2.047,0.192
		c-0.067-0.05-0.142-0.124-0.161-0.2c-0.082-0.329-0.253-0.589-0.479-0.842c-0.095-0.105-0.093-0.381-0.024-0.53
		c0.204-0.451,0.462-0.877,0.7-1.312c0.016-0.031,0.029-0.076,0.055-0.086c0.314-0.132,0.483-0.329,0.423-0.705
		c-0.011-0.064,0.236-0.207,0.383-0.25C103.644,0.075,103.924,0.044,104.164,0z"/>
	<path fill-rule="evenodd" clip-rule="evenodd" fill="#FFFFFF" d="M73.379,16.201c-0.098,0.064-0.158,0.136-0.208,0.129
		c-0.064-0.01-0.121-0.082-0.18-0.127c0.055-0.06,0.103-0.152,0.168-0.168C73.205,16.024,73.276,16.119,73.379,16.201z"/>
	<path fill-rule="evenodd" clip-rule="evenodd" fill="#FFFFFF" d="M110.825,12.134c-0.047,0.036-0.083,0.064-0.118,0.092
		c-0.023-0.037-0.065-0.075-0.065-0.111c0.001-0.032,0.051-0.063,0.078-0.094C110.75,12.054,110.782,12.088,110.825,12.134z"/>
	<path fill-rule="evenodd" clip-rule="evenodd" fill="#FFFFFF" d="M46.122,18.015c0.031,0.01,0.068,0.011,0.091,0.029
		c0.041,0.033,0.073,0.077,0.106,0.118c0.001,0.003-0.028,0.035-0.03,0.034c-0.043-0.032-0.09-0.062-0.125-0.102
		c-0.02-0.022-0.021-0.061-0.03-0.092L46.122,18.015z"/>
	<path fill-rule="evenodd" clip-rule="evenodd" fill="#FFFFFF" d="M134.241,4.356c-0.032,0.006-0.066,0.02-0.098,0.017
		c-0.048-0.005-0.095-0.021-0.139-0.039c-0.005-0.001,0.015-0.082,0.021-0.082c0.056,0.003,0.114,0.008,0.165,0.029
		c0.021,0.009,0.026,0.058,0.039,0.089L134.241,4.356z"/>
	<path fill-rule="evenodd" clip-rule="evenodd" fill="#FFFFFF" d="M76.198,7.804C76.137,7.836,76.1,7.872,76.066,7.87
		c-0.038-0.003-0.073-0.04-0.11-0.062c0.03-0.026,0.061-0.074,0.092-0.074C76.087,7.732,76.128,7.769,76.198,7.804z"/>
	<path fill-rule="evenodd" clip-rule="evenodd" fill="#FFFFFF" d="M141.841,20.129c-0.062,0.023-0.126,0.047-0.189,0.07
		c0.004-0.03,0.008-0.087,0.011-0.087c0.06,0.001,0.119,0.009,0.178,0.015L141.841,20.129z"/>
	<path fill-rule="evenodd" clip-rule="evenodd" fill="#FFFFFF" d="M99.689,11.132c-0.006-0.025-0.012-0.05-0.017-0.076
		c0.027,0,0.056-0.003,0.083,0.002c0.009,0.001,0.014,0.025,0.02,0.039C99.747,11.109,99.718,11.121,99.689,11.132z"/>
	<path fill-rule="evenodd" clip-rule="evenodd" fill="#FFFFFF" d="M37.307,12.646c-0.01-0.005-0.029-0.01-0.03-0.016
		c-0.001-0.015,0.007-0.03,0.011-0.045c0.011,0.005,0.029,0.01,0.03,0.016C37.318,12.616,37.311,12.631,37.307,12.646z"/>
	<path fill-rule="evenodd" clip-rule="evenodd" fill="#FFFFFF" d="M27.686,18.558c-0.006,0.004-0.013,0.008-0.02,0.012
		c0.004-0.017,0.009-0.034,0.014-0.051C27.681,18.531,27.683,18.545,27.686,18.558z"/>
	<path fill-rule="evenodd" clip-rule="evenodd" fill="#FFFFFF" d="M89.555,5.266c0.028-0.015,0.055-0.037,0.08-0.037
		c0.014,0,0.027,0.04,0.041,0.062c-0.023,0.011-0.05,0.033-0.071,0.03C89.586,5.317,89.572,5.285,89.555,5.266z"/>
	<path fill-rule="evenodd" clip-rule="evenodd" fill="#FFFFFF" d="M130.799,15.911c-0.01-0.006-0.028-0.011-0.028-0.017
		c-0.002-0.016,0.006-0.03,0.009-0.046c0.012,0.005,0.033,0.01,0.033,0.015C130.812,15.879,130.805,15.895,130.799,15.911z"/>
	<path fill-rule="evenodd" clip-rule="evenodd" fill="#FFFFFF" d="M92.22,16.908c-0.013,0.011-0.025,0.022-0.037,0.033
		c-0.012-0.013-0.031-0.025-0.03-0.037c0-0.013,0.021-0.023,0.034-0.035C92.199,16.883,92.209,16.896,92.22,16.908z"/>
	<polygon fill-rule="evenodd" clip-rule="evenodd" fill="#FFFFFF" points="92.515,16.787 92.523,16.818 92.496,16.812 	"/>
	<path fill-rule="evenodd" clip-rule="evenodd" fill="#FFFFFF" d="M63.511,5.979c0.011,0,0.021,0.001,0.032,0.001
		c-0.007,0.022-0.013,0.043-0.02,0.065c-0.01-0.011-0.024-0.021-0.028-0.035C63.492,6.003,63.505,5.99,63.511,5.979z"/>
	<path fill-rule="evenodd" clip-rule="evenodd" fill="#FFFFFF" d="M63.202,6.246c-0.009-0.01-0.018-0.021-0.027-0.031
		c0.011-0.009,0.022-0.025,0.032-0.024s0.018,0.019,0.027,0.029C63.223,6.229,63.212,6.238,63.202,6.246z"/>
	<path fill-rule="evenodd" clip-rule="evenodd" fill="#FFFFFF" d="M118.419,15.395c0.012,0.011,0.022,0.021,0.034,0.031
		c-0.012,0.01-0.024,0.028-0.035,0.027c-0.011,0-0.021-0.02-0.031-0.031C118.398,15.413,118.41,15.402,118.419,15.395z"/>
	<path fill-rule="evenodd" clip-rule="evenodd" fill="#FFFFFF" d="M13.02,7.959c-0.013,0.019-0.026,0.037-0.04,0.055
		c0.002-0.01,0-0.024,0.007-0.029c0.012-0.009,0.027-0.012,0.042-0.018L13.02,7.959z"/>
	<polygon fill-rule="evenodd" clip-rule="evenodd" fill="#FFFFFF" points="22.272,8.777 22.264,8.75 22.289,8.754 	"/>
	<polygon fill-rule="evenodd" clip-rule="evenodd" fill="#FFFFFF" points="86.304,13.364 86.331,13.376 86.312,13.359 	"/>
	<path fill-rule="evenodd" clip-rule="evenodd" fill="#FFFFFF" d="M57.143,10.281c-0.014-0.001-0.028-0.001-0.042-0.002
		c0.01,0.004,0.021,0.008,0.031,0.012L57.143,10.281z"/>
	<polygon fill-rule="evenodd" clip-rule="evenodd" fill="#FFFFFF" points="97.408,11.991 97.433,12 97.417,11.985 	"/>
	<path fill-rule="evenodd" clip-rule="evenodd" fill="#FFFFFF" d="M22.625,11.829c-0.012,0.01-0.024,0.027-0.034,0.027
		c-0.011-0.001-0.021-0.02-0.031-0.031c0.012-0.01,0.023-0.027,0.034-0.027C22.605,11.799,22.615,11.818,22.625,11.829z"/>
	<path fill-rule="evenodd" clip-rule="evenodd" fill="#FFFFFF" d="M90.223,17.376c0.011-0.011,0.02-0.022,0.031-0.03
		c0.005-0.004,0.016,0.001,0.023,0.003c-0.021,0.004-0.043,0.009-0.065,0.014L90.223,17.376z"/>
	<path fill-rule="evenodd" clip-rule="evenodd" fill="#FFFFFF" d="M39.253,14.841c-0.012,0.021-0.025,0.044-0.038,0.065
		C39.228,14.885,39.241,14.862,39.253,14.841L39.253,14.841z"/>
	<polygon fill-rule="evenodd" clip-rule="evenodd" fill="#FFFFFF" points="50.042,9.546 50.054,9.574 50.053,9.536 	"/>
</g>
</svg>
