<?xml version="1.0" encoding="utf-8"?>
<!-- Generator: Adobe Illustrator 16.0.0, SVG Export Plug-In . SVG Version: 6.00 Build 0)  -->
<!DOCTYPE svg PUBLIC "-//W3C//DTD SVG 1.1//EN" "http://www.w3.org/Graphics/SVG/1.1/DTD/svg11.dtd">
<svg version="1.1" id="Layer_1" xmlns="http://www.w3.org/2000/svg" xmlns:xlink="http://www.w3.org/1999/xlink" x="0px" y="0px"
	 width="279px" height="247px" viewBox="0 0 279 247" enable-background="new 0 0 279 247" xml:space="preserve">
<g>
	<rect opacity="0.85" fill="#DEFD19" enable-background="new    " width="279" height="247"/>
	<g>
		<g>
			<g>
				<g>
					<path fill="#333333" d="M187.762,75.943c-15.822,1.649-35.146-0.5-51.118,0.999c-19.166,1.998-39.932,1.998-59.1,1.998
						c0-0.999,1.598-2.497,0-2.997c-6.389-1.498-6.389-3.496-6.389-5.494c0-0.999,4.792,0,3.195-0.999
						c4.791,0,12.783-0.5,7.986-1.498c-1.598-1-7.986,0-9.582-1.498c-1.6-1.499,1.596-2.997,0-4.494c-1.6,0-4.794,0-6.392,0
						c-1.594-1,1.598-2.998,0-2.998c-4.791-0.999-11.182-0.499-17.567-0.499c0-0.999-1.601-1.998,1.594-2.498
						c55.907-0.999,113.411-2.997,169.316-1.497c6.389,0.499,1.597,2.496-3.195,3.995c1.598-0.5,1.598,0.999,3.195,0.499
						c0,1.499-3.195,3.995-9.585,4.495c1.598,0,3.192,0,4.792,0c1.598,0.499,0,1.499,0,2.496c-1.6,0-3.194,0-3.194,0.501
						c0,0.498,0,1.498,0,1.997c1.597,0,4.792,0,6.39,0c-1.598,0-3.194,0-3.194,0.499c0,0.5,0,1.499,0,1.999
						c-3.194,0.499-7.985-0.5-11.183,0v1.497c3.196,0.5,7.987,0,11.183,0c-1.599,0.5-1.599,0.999-1.599,1.999
						c-4.791,0.5-9.584-1-14.373,0.5h4.789C200.538,77.443,192.555,75.444,187.762,75.943z"/>
				</g>
			</g>
		</g>
		<g>
			<g>
				<g>
					<path fill="#333333" d="M187.85,133.023c-15.875,1.649-35.262-0.5-51.288,1c-19.23,1.996-40.064,1.996-59.296,1.996
						c0-0.998,1.603-2.496,0-2.996c-6.41-1.498-6.41-3.496-6.41-5.494c0-0.998,4.807,0,3.206-0.998
						c4.807,0,12.825-0.499,8.013-1.497c-1.603-1-8.013,0-9.614-1.498c-1.604-1.499,1.602-2.997,0-4.494c-1.604,0-4.811,0-6.413,0
						c-1.6-1,1.603-2.998,0-2.998c-4.807-0.999-11.219-0.499-17.625-0.499c0-0.999-1.606-1.998,1.6-2.498
						c56.094-0.999,113.79-2.997,169.881-1.497c6.408,0.499,1.601,2.496-3.206,3.995c1.601-0.5,1.601,0.999,3.206,0.499
						c0,1.499-3.206,3.995-9.618,4.495c1.604,0,3.204,0,4.81,0c1.604,0.499,0,1.499,0,2.496c-1.604,0-3.205,0-3.205,0.501
						c0,0.498,0,1.498,0,1.997c1.601,0,4.809,0,6.408,0c-1.601,0-3.203,0-3.203,0.499s0,1.497,0,1.999
						c-3.205,0.498-8.014-0.502-11.221,0v1.496c3.207,0.5,8.016,0,11.221,0c-1.604,0.5-1.604,1-1.604,1.998
						c-4.808,0.5-9.615-0.998-14.421,0.5h4.806C200.669,134.523,192.657,132.523,187.85,133.023z"/>
				</g>
			</g>
		</g>
		<g>
			<g>
				<g>
					<path fill="#333333" d="M187.75,190.105c-15.818,1.648-35.137-0.5-51.106,0.998c-19.162,1.998-39.924,1.998-59.088,1.998
						c0-0.998,1.598-2.496,0-2.996c-6.387-1.498-6.387-3.496-6.387-5.494c0-1,4.79,0,3.194-1c4.791,0,12.78-0.498,7.985-1.496
						c-1.597-1-7.985,0-9.581-1.498c-1.599-1.499,1.596-2.997,0-4.494c-1.599,0-4.793,0-6.391,0c-1.594-1.001,1.597-2.998,0-2.998
						c-4.79-0.999-11.179-0.499-17.563-0.499c0-0.999-1.601-1.998,1.594-2.498c55.897-0.998,113.389-2.996,169.284-1.496
						c6.389,0.498,1.597,2.495-3.193,3.994c1.595-0.5,1.595,0.999,3.193,0.499c0,1.498-3.193,3.995-9.584,4.495
						c1.599,0,3.193,0,4.793,0c1.598,0.499,0,1.498,0,2.496c-1.6,0-3.194,0-3.194,0.501c0,0.498,0,1.498,0,1.997
						c1.596,0,4.792,0,6.387,0c-1.595,0-3.192,0-3.192,0.499c0,0.498,0,1.498,0,1.998c-3.193,0.498-7.983-0.5-11.18,0v1.498
						c3.195,0.5,7.985,0,11.18,0c-1.599,0.5-1.599,0.998-1.599,1.998c-4.791,0.5-9.581-1-14.37,0.5h4.789
						C200.525,191.604,192.542,189.605,187.75,190.105z"/>
				</g>
			</g>
		</g>
	</g>
</g>
</svg>
