<?xml version="1.0" encoding="utf-8"?>
<!-- Generator: Adobe Illustrator 16.0.0, SVG Export Plug-In . SVG Version: 6.00 Build 0)  -->
<!DOCTYPE svg PUBLIC "-//W3C//DTD SVG 1.1//EN" "http://www.w3.org/Graphics/SVG/1.1/DTD/svg11.dtd">
<svg version="1.1" id="Layer_1" xmlns="http://www.w3.org/2000/svg" xmlns:xlink="http://www.w3.org/1999/xlink" x="0px" y="0px"
	 width="279px" height="247px" viewBox="0 0 279 247" enable-background="new 0 0 279 247" xml:space="preserve">
<g>
	<rect opacity="0.8" width="279" height="247"/>
	<g>
		<g>
			<g>
				<g>
					<g>
						<g>
							<path fill="#E2FD36" d="M225.784,56.957c-0.537-0.482-1.463-0.529-2.34-0.61C224.119,56.81,224.837,57.011,225.784,56.957z"
								/>
							<polygon fill="#E2FD36" points="223.427,56.337 223.414,56.343 223.444,56.347 							"/>
							<path fill="#E2FD36" d="M53.286,77.937c0.219-0.009,0.468-0.02,0.722-0.03C53.766,77.892,53.52,77.891,53.286,77.937z"/>
							<path fill="#E2FD36" d="M180.952,54.95l-0.134,0.799c-2.08,0.012-0.605-0.915-2.529-0.718
								c-0.752,1.131-3.195-0.117-3.859,0.484c0.015-0.09-0.927-0.124-0.867-0.478c-0.289,0.614-0.969,0.143-1.563,0.299
								c-0.215,0.171,0.158,0.184,0.319,0.369l-1.36,0.217c-0.532-0.198-0.663-0.559-0.085-0.625
								c-3.556-0.22-20.629-0.808-24.46-0.502c0.492,0.464,1.675,0.15,2.125,0.88c-1.013,0.408-1.491-0.144-1.938,0.286
								c-0.39-1.084-2.227-0.259-2.993-1.357l-0.29,0.614l-0.504-0.376c-4.454,0.639-1.018,0.312-4.966,0.167
								c-2.285,0.095-3.371,0.947-4.643,0.633c0.189,0.006,0.692,0.383,0.101,0.539c-0.101-0.539-1.576,0.388-1.864-0.157
								c-0.58,0.068-2.458-0.002-1.822,0.736c-0.319-0.368-1.995-0.519-0.997-0.838c-0.565-0.021-1.113-0.13-1.521,0.033
								l0.726,0.206c-1.91,0.107-2.95-0.464-4.194,0.203l0.706,0.293c-1.142,0.047-2.096,0.103-2.544-0.627l1.172-0.225
								c-1.893,0.019-3.035,0.066-4.613,0.455l0.563,0.02c-2.01,0.729-12.527,1.331-14.38,2.244l0.854,0.566l-1.593,0.477
								c0.188,0.007,0.769-1.839,0.927-1.654c-3.414,0.053-21.17,0.492-24.322,0.11c-1.272-0.313-0.229-0.899-0.214-0.988
								c-1.548,0.211-0.668,0.601-1.984,0.552c-0.359-0.102,0.075-0.444,0.277-0.525c-0.577,0.067-1.112-0.129-1.156,0.135
								c0.721,0.206,0.416,0.908,0.721,1.364l-1.693-0.061l0.075-0.444c-0.377-0.014-0.957,1.213-2.62,0.975
								c-2.806-0.192-5.853-0.037-8.674-0.139c0.044-0.266,0.636-0.423,1.23-0.579c-0.378-0.014-0.955,0.054-1.303-0.137
								c0.682,0.47-1.184,0.312-0.651,0.511c-2.066,1.084-4.74,0.094-6.564,0.83c-0.159,0.975-3.906,16.75-3.906,17.91
								c-0.566-0.021-1.13-0.042-1.303-0.138c0.146,0.272,1.259,0.403,1.851,0.247l0.102-0.622c1.361-0.218,0.319,0.369,1.647,0.327
								c0.071,0.509-1.152,0.617-2.229,0.666c0.97,0.06,1.935,0.43,2.331-0.126c0.911,0.211-0.102,0.621,0.996,0.838
								c0.782-0.149,1.808-0.647,2.707-0.346l-0.016,0.089c2.184,0.525,3.341-0.771,5.335-0.252l-0.215,0.17
								c0.705,0.293,2.093-0.101,3.365,0.212c-0.363-0.103-0.678-0.471,0.087-0.531c1.462,0.32,2.46,0,3.529,0.396l1.026-0.498
								c5.092,0.098,25.206-0.61,30.321-0.69l-0.2,0.08c7.793-0.249,23.792-0.21,31.848-0.896c1.246,0.49,2.964,0.375,4.264,0.512
								c-0.723-0.204-0.475-0.552,0.089-0.532c3.961,0.056,0.268-0.339,4.272-0.548c4.612-0.456,22.261,0.063,26.354,0.48
								c2.199-0.722,4.944-0.176,7.099-0.633l-0.217,0.171c2.313-0.272,15.411,0.397,18.101,0.139l-0.361-0.103
								c2.345-0.449,2.025,0.342,3.873,0.588c-0.243-0.812,1.767-1.271,2.533-1.332l-0.029,0.177
								c1.155-0.136,3.773-0.84,5.682-0.949l-0.074,0.444c1.592-0.477,4.584-0.279,5.728-0.325c2.616,0.184,6.65,0.956,10.148,0.37
								l2.26,1.264l0.331-0.125c0,0,3.64-15.264-0.98-18.515l0.073-0.442l-0.913,0.057c-1.096-0.218-1.603,0.295-1.528-0.147
								l1.501,0.055c-1.101-0.129-0.332-0.363,0.089-0.614c-0.46-0.042-0.906-0.096-1.272-0.232c-0.217,0.17,0.159,0.184,0.331,0.28
								c-0.593,0.156-1.417,0.572-2.139,0.368c-1.128-0.042-0.072-0.717-1.388-0.765c-6.938-0.342-13.662-0.855-20.676-0.755
								c-0.159-0.184,0.03-0.177,0.233-0.259c-2.113,0.191-3.991,0.122-5.915,0.32c-0.534-0.198-0.681-0.471-0.838-0.655
								c0.158,0.184-2.498,0.284-5.216,0.326c-1.358,0.009-2.732,0.017-3.778,0.023C181.712,54.99,180.995,54.974,180.952,54.95z"/>
						</g>
					</g>
				</g>
			</g>
		</g>
		<g>
			<g>
				<g>
					<g>
						<g>
							<path fill="#E2FD36" d="M225.986,114.037c-0.539-0.482-1.468-0.529-2.348-0.609
								C224.315,113.89,225.036,114.091,225.986,114.037z"/>
							<polygon fill="#E2FD36" points="223.621,113.417 223.607,113.424 223.639,113.428 							"/>
							<path fill="#E2FD36" d="M52.913,135.018c0.22-0.01,0.47-0.02,0.724-0.03C53.394,134.973,53.147,134.971,52.913,135.018z"/>
							<path fill="#E2FD36" d="M181.005,112.03l-0.135,0.799c-2.087,0.012-0.607-0.914-2.537-0.717
								c-0.755,1.131-3.206-0.117-3.873,0.483c0.016-0.089-0.93-0.124-0.87-0.478c-0.289,0.614-0.972,0.143-1.567,0.299
								c-0.216,0.17,0.158,0.184,0.319,0.369l-1.365,0.217c-0.533-0.197-0.665-0.559-0.085-0.625
								c-3.567-0.22-20.697-0.808-24.541-0.501c0.494,0.463,1.681,0.15,2.132,0.879c-1.017,0.409-1.496-0.143-1.944,0.287
								c-0.39-1.084-2.233-0.26-3.002-1.358l-0.292,0.615l-0.505-0.376c-4.469,0.64-1.021,0.312-4.982,0.167
								c-2.293,0.094-3.383,0.947-4.658,0.633c0.189,0.006,0.695,0.382,0.101,0.54c-0.101-0.54-1.581,0.387-1.871-0.158
								c-0.582,0.068-2.466-0.001-1.829,0.736c-0.32-0.368-2.001-0.519-1-0.838c-0.567-0.022-1.117-0.13-1.525,0.033l0.729,0.206
								c-1.916,0.107-2.96-0.464-4.208,0.204l0.708,0.293c-1.146,0.047-2.104,0.102-2.553-0.628l1.176-0.224
								c-1.899,0.019-3.045,0.067-4.628,0.455l0.565,0.02c-2.017,0.729-12.569,1.331-14.428,2.244l0.856,0.566l-1.599,0.477
								c0.189,0.007,0.771-1.839,0.93-1.654c-3.425,0.053-21.24,0.492-24.403,0.11c-1.276-0.313-0.229-0.899-0.215-0.989
								c-1.553,0.212-0.67,0.601-1.991,0.552c-0.361-0.102,0.075-0.444,0.277-0.525c-0.579,0.067-1.115-0.129-1.16,0.136
								c0.724,0.205,0.417,0.907,0.724,1.364l-1.699-0.061l0.076-0.443c-0.379-0.014-0.96,1.213-2.629,0.975
								c-2.815-0.192-5.873-0.037-8.703-0.14c0.044-0.266,0.639-0.423,1.234-0.579c-0.38-0.014-0.958,0.055-1.308-0.137
								c0.684,0.471-1.188,0.313-0.653,0.511c-2.073,1.084-4.756,0.094-6.586,0.83c-0.16,0.976-3.919,16.751-3.919,17.91
								c-0.568-0.021-1.134-0.041-1.307-0.137c0.146,0.271,1.263,0.402,1.857,0.246l0.103-0.621c1.366-0.218,0.32,0.369,1.653,0.327
								c0.071,0.508-1.156,0.617-2.236,0.666c0.973,0.059,1.942,0.43,2.338-0.127c0.914,0.212-0.102,0.621,1,0.839
								c0.784-0.15,1.814-0.647,2.716-0.347l-0.016,0.09c2.19,0.524,3.352-0.771,5.353-0.252l-0.215,0.17
								c0.708,0.294,2.1-0.102,3.376,0.212c-0.364-0.102-0.681-0.471,0.087-0.53c1.467,0.32,2.468,0,3.541,0.396l1.03-0.498
								c5.109,0.098,25.29-0.61,30.422-0.689l-0.201,0.079c7.82-0.249,23.872-0.21,31.954-0.896c1.25,0.489,2.974,0.374,4.278,0.512
								c-0.725-0.205-0.477-0.553,0.089-0.532c3.973,0.057,0.268-0.339,4.287-0.548c4.627-0.456,22.335,0.062,26.442,0.48
								c2.206-0.723,4.961-0.176,7.122-0.633l-0.218,0.17c2.321-0.271,15.463,0.397,18.161,0.14l-0.362-0.104
								c2.353-0.448,2.032,0.342,3.886,0.588c-0.243-0.811,1.772-1.271,2.541-1.332l-0.028,0.177c1.159-0.136,3.785-0.84,5.7-0.948
								l-0.074,0.443c1.597-0.477,4.599-0.278,5.746-0.325c2.625,0.184,6.673,0.955,10.183,0.369l2.268,1.265l0.332-0.126
								c0,0,3.651-15.263-0.984-18.514l0.074-0.442l-0.916,0.057c-1.101-0.218-1.608,0.295-1.534-0.146l1.507,0.054
								c-1.105-0.128-0.334-0.363,0.088-0.613c-0.461-0.042-0.909-0.096-1.276-0.231c-0.218,0.17,0.16,0.184,0.332,0.279
								c-0.594,0.156-1.422,0.572-2.146,0.368c-1.131-0.042-0.072-0.717-1.392-0.765c-6.962-0.343-13.708-0.855-20.745-0.756
								c-0.16-0.184,0.031-0.177,0.233-0.26c-2.119,0.191-4.004,0.122-5.934,0.32c-0.536-0.198-0.683-0.471-0.842-0.654
								c0.159,0.184-2.506,0.284-5.232,0.326c-1.363,0.009-2.742,0.017-3.791,0.023C181.767,112.07,181.048,112.054,181.005,112.03z
								"/>
						</g>
					</g>
				</g>
			</g>
		</g>
		<g>
			<g>
				<g>
					<g>
						<g>
							<path fill="#E2FD36" d="M225.768,171.118c-0.536-0.482-1.463-0.529-2.34-0.609
								C224.104,170.971,224.82,171.172,225.768,171.118z"/>
							<polygon fill="#E2FD36" points="223.411,170.498 223.397,170.505 223.428,170.509 							"/>
							<path fill="#E2FD36" d="M53.302,192.099c0.219-0.01,0.469-0.02,0.722-0.03C53.782,192.054,53.536,192.052,53.302,192.099z"/>
							<path fill="#E2FD36" d="M180.944,169.111l-0.134,0.799c-2.08,0.012-0.605-0.914-2.529-0.717
								c-0.752,1.131-3.194-0.117-3.858,0.483c0.015-0.089-0.927-0.124-0.867-0.478c-0.288,0.613-0.969,0.143-1.562,0.299
								c-0.215,0.171,0.158,0.184,0.319,0.369l-1.36,0.217c-0.532-0.197-0.663-0.559-0.085-0.625
								c-3.556-0.221-20.625-0.809-24.455-0.502c0.492,0.463,1.675,0.15,2.124,0.879c-1.013,0.409-1.491-0.143-1.938,0.287
								c-0.389-1.084-2.226-0.26-2.992-1.358l-0.29,0.614l-0.503-0.376c-4.454,0.64-1.018,0.312-4.965,0.167
								c-2.285,0.095-3.371,0.947-4.642,0.633c0.189,0.007,0.693,0.383,0.101,0.54c-0.101-0.54-1.576,0.387-1.864-0.158
								c-0.58,0.068-2.458-0.001-1.822,0.736c-0.319-0.368-1.995-0.519-0.997-0.839c-0.565-0.021-1.113-0.13-1.52,0.033l0.726,0.205
								c-1.909,0.107-2.95-0.463-4.193,0.204l0.706,0.293c-1.141,0.047-2.096,0.102-2.544-0.628l1.172-0.225
								c-1.893,0.02-3.035,0.067-4.612,0.455l0.563,0.021c-2.01,0.729-12.525,1.331-14.377,2.243l0.853,0.566l-1.593,0.478
								c0.188,0.007,0.769-1.839,0.926-1.654c-3.413,0.053-21.166,0.492-24.317,0.11c-1.272-0.314-0.229-0.899-0.214-0.989
								c-1.548,0.212-0.668,0.601-1.984,0.552c-0.359-0.102,0.075-0.443,0.276-0.524c-0.577,0.067-1.111-0.129-1.155,0.136
								c0.721,0.205,0.416,0.907,0.721,1.363l-1.693-0.061l0.075-0.443c-0.377-0.014-0.957,1.213-2.62,0.975
								c-2.805-0.192-5.852-0.037-8.673-0.14c0.044-0.266,0.636-0.423,1.23-0.579c-0.378-0.014-0.955,0.055-1.303-0.137
								c0.682,0.471-1.184,0.313-0.651,0.512c-2.066,1.084-4.739,0.094-6.563,0.829c-0.159,0.976-3.905,16.751-3.905,17.911
								c-0.566-0.021-1.129-0.043-1.302-0.139c0.146,0.273,1.259,0.403,1.851,0.247l0.102-0.621
								c1.361-0.218,0.319,0.369,1.647,0.327c0.071,0.508-1.152,0.617-2.229,0.666c0.97,0.059,1.935,0.43,2.33-0.127
								c0.911,0.211-0.102,0.621,0.996,0.839c0.782-0.149,1.808-0.647,2.706-0.347l-0.016,0.09c2.183,0.524,3.34-0.771,5.334-0.252
								l-0.215,0.17c0.705,0.294,2.093-0.102,3.365,0.213c-0.363-0.104-0.678-0.471,0.086-0.531c1.462,0.32,2.46,0,3.529,0.396
								l1.026-0.497c5.091,0.097,25.201-0.611,30.315-0.69l-0.2,0.079c7.792-0.248,23.788-0.21,31.842-0.896
								c1.246,0.489,2.963,0.374,4.263,0.512c-0.723-0.204-0.475-0.552,0.089-0.532c3.96,0.057,0.268-0.339,4.271-0.549
								c4.611-0.455,22.257,0.063,26.35,0.481c2.199-0.723,4.943-0.177,7.098-0.633l-0.217,0.17
								c2.312-0.271,15.408,0.397,18.097,0.14L194.711,190c2.345-0.449,2.025,0.342,3.872,0.588
								c-0.242-0.811,1.767-1.271,2.533-1.332l-0.029,0.178c1.155-0.137,3.772-0.841,5.681-0.949l-0.074,0.443
								c1.591-0.477,4.583-0.278,5.727-0.325c2.615,0.184,6.649,0.956,10.146,0.37l2.26,1.264l0.33-0.126
								c0,0,3.639-15.263-0.98-18.515l0.074-0.441l-0.913,0.057c-1.097-0.218-1.603,0.295-1.528-0.146l1.501,0.054
								c-1.101-0.128-0.332-0.363,0.088-0.613c-0.46-0.042-0.905-0.096-1.271-0.231c-0.217,0.17,0.159,0.184,0.33,0.279
								c-0.592,0.156-1.416,0.572-2.138,0.368c-1.127-0.042-0.071-0.717-1.387-0.765c-6.938-0.343-13.66-0.855-20.672-0.756
								c-0.16-0.184,0.03-0.178,0.232-0.26c-2.112,0.191-3.99,0.122-5.913,0.32c-0.534-0.198-0.681-0.471-0.839-0.654
								c0.159,0.184-2.497,0.283-5.214,0.326c-1.358,0.008-2.732,0.017-3.777,0.023
								C181.704,169.151,180.987,169.136,180.944,169.111z"/>
						</g>
					</g>
				</g>
			</g>
		</g>
	</g>
</g>
</svg>
