<?xml version="1.0" encoding="utf-8"?>
<!-- Generator: Adobe Illustrator 16.0.0, SVG Export Plug-In . SVG Version: 6.00 Build 0)  -->
<!DOCTYPE svg PUBLIC "-//W3C//DTD SVG 1.1//EN" "http://www.w3.org/Graphics/SVG/1.1/DTD/svg11.dtd">
<svg version="1.1" id="Layer_1" xmlns="http://www.w3.org/2000/svg" xmlns:xlink="http://www.w3.org/1999/xlink" x="0px" y="0px"
	 width="325px" height="200px" viewBox="-62.5 0 325 200" enable-background="new -62.5 0 325 200" xml:space="preserve">
<path opacity="0.5" fill-rule="evenodd" clip-rule="evenodd" fill="#FFFFFF" enable-background="new    " d="M-62.202,100.808
	c6.056-2.713,12.002-5.376,18.039-8.08c7.834,16.316,20.118,27.438,37.38,32.845c10.321,3.231,23.049,2.975,29.533,0.783
	c-0.288-0.573-0.543-1.134-0.843-1.671C13.47,109.572,9.563,93.378,10.266,76.076c0.305-7.5,0.964-14.999,3.85-21.979
	c5.977-14.454,16.792-22.947,32.446-24.609C66.847,27.335,85.448,41.693,88.489,61.8c1.893,12.511-0.5,24.566-5.076,36.19
	c-5.555,14.113-14.591,25.63-26.766,34.679c-0.375,0.279-0.751,0.558-1.12,0.846c-0.089,0.069-0.149,0.178-0.422,0.516
	c10.719,9.036,22.959,14.617,36.864,16.23c20.25,2.349,38.223-3.189,54.166-16.251c-0.618-0.512-1.033-0.885-1.479-1.219
	c-17.516-13.148-28.152-30.532-31.661-52.127c-1.432-8.813-1.892-17.743,1.626-26.274c6.018-14.598,16.838-23.106,32.619-24.919
	c19.061-2.188,38.147,11.062,42.039,32.329c4.093,22.362,0.832,43.464-10.289,63.322c-0.171,0.305-0.329,0.617-0.47,0.937
	c-0.041,0.093,0.004,0.223,0.012,0.335c18.117,5.133,49.553-0.813,65.619-31.206c5.85,2.942,11.704,5.887,18.051,9.078
	c-3.032,4.557-5.654,9.134-8.881,13.237c-13.088,16.642-30.199,26.595-51.142,29.735c-11.976,1.796-23.78,0.664-35.296-3.104
	c-1.377-0.45-2.196-0.199-3.203,0.784c-13.749,13.433-30.096,22.003-49.108,24.757c-29.516,4.275-55.236-4.06-76.916-24.597
	c-1.179-1.117-2.113-1.378-3.663-0.882c-37.821,12.093-78.689-5.762-95.443-41.65C-61.69,102.029-61.904,101.499-62.202,100.808z
	 M41.555,118.724c0.731-0.45,1.292-0.759,1.813-1.124c10.558-7.403,18.127-17.123,22.431-29.292
	c2.571-7.27,4.123-14.772,3.197-22.508c-1.111-9.285-8.479-15.946-17.822-16.519c-8.936-0.547-17.028,5.397-19.272,14.371
	c-0.789,3.156-1.344,6.407-1.625,9.647c-1.214,14.019,1.405,27.308,7.999,39.77C39.28,114.967,40.427,116.788,41.555,118.724z
	 M159.52,118.718c0.509-0.792,0.9-1.367,1.256-1.963c9.557-15.999,12.497-33.156,8.922-51.426
	c-1.849-9.447-8.869-15.603-18.185-16.075c-9.977-0.506-19.147,7.689-19.49,17.645c-0.508,14.754,4.183,27.809,13.377,39.272
	C149.34,111.083,153.994,115.228,159.52,118.718z"/>
</svg>
