<?xml version="1.0" encoding="utf-8"?>
<!-- Generator: Adobe Illustrator 16.0.0, SVG Export Plug-In . SVG Version: 6.00 Build 0)  -->
<!DOCTYPE svg PUBLIC "-//W3C//DTD SVG 1.1//EN" "http://www.w3.org/Graphics/SVG/1.1/DTD/svg11.dtd">
<svg version="1.1" id="Layer_1" xmlns="http://www.w3.org/2000/svg" xmlns:xlink="http://www.w3.org/1999/xlink" x="0px" y="0px"
	 width="100px" height="70.765px" viewBox="0 0 100 70.765" enable-background="new 0 0 100 70.765" xml:space="preserve">
<g>
	<path fill="#FF0000" d="M99.927,24.373c-0.041-1.184-0.102-2.367-0.192-3.55c-0.384-5.012-0.943-10.752-4.255-14.762
		c-2.834-3.431-7.225-4.207-11.392-4.678c-5.277-0.597-10.579-0.957-15.886-1.16C57.455-0.188,46.697,0.05,35.949,0.29
		c-5.522,0.122-11.047,0.245-16.553,0.684C12.634,1.512,5.68,2.502,2.531,9.259c-2.827,6.064-2.476,13.764-2.512,20.289
		c-0.032,5.851-0.051,11.704,0.183,17.549c0.304,7.587,0.755,17.471,8.944,20.798c4.372,1.776,9.651,2.174,14.321,2.477
		c4.95,0.322,9.912,0.284,14.869,0.356c10.396,0.154,20.79-0.201,31.182-0.407c7.218-0.145,14.627-0.225,21.535-2.582
		c5.962-2.035,7.519-8.496,8.324-14.102c0.801-5.569,0.597-11.22,0.588-16.828C99.959,32.665,100.069,28.515,99.927,24.373z"/>
	<path fill="#FFFFFF" d="M65.76,35.271c-8.73-5.128-17.271-10.144-25.893-15.208c0,10.219,0,20.266,0,30.423
		C48.517,45.402,57.06,40.383,65.76,35.271z"/>
</g>
</svg>
