<?xml version="1.0" encoding="utf-8"?>
<!-- Generator: Adobe Illustrator 16.0.0, SVG Export Plug-In . SVG Version: 6.00 Build 0)  -->
<!DOCTYPE svg PUBLIC "-//W3C//DTD SVG 1.1//EN" "http://www.w3.org/Graphics/SVG/1.1/DTD/svg11.dtd">
<svg version="1.1" id="Layer_1" xmlns="http://www.w3.org/2000/svg" xmlns:xlink="http://www.w3.org/1999/xlink" x="0px" y="0px"
	 width="200px" height="200px" viewBox="0 0 200 200" enable-background="new 0 0 200 200" xml:space="preserve">
<path opacity="0.5" fill="#FFFFFF" d="M199.854,77.981c-0.082-2.368-0.205-4.735-0.386-7.1c-0.769-10.024-1.887-21.505-8.511-29.524
	c-5.666-6.861-14.447-8.413-22.781-9.356c-10.555-1.194-21.159-1.914-31.771-2.32c-21.494-0.821-43.011-0.345-64.508,0.134
	c-11.044,0.244-22.095,0.49-33.106,1.367C25.269,32.259,11.36,34.24,5.062,47.752C-0.592,59.881,0.11,75.281,0.039,88.33
	c-0.065,11.7-0.104,23.407,0.365,35.098c0.608,15.174,1.51,34.94,17.889,41.597c8.744,3.552,19.303,4.346,28.642,4.952
	c9.899,0.645,19.823,0.567,29.737,0.713c20.792,0.309,41.58-0.402,62.365-0.814c14.436-0.289,29.254-0.45,43.07-5.165
	c11.923-4.068,15.035-16.992,16.647-28.203c1.602-11.139,1.194-22.438,1.176-33.655C199.917,94.564,200.139,86.265,199.854,77.981z
	 M80,130.207c0-20.314,0-40.408,0-60.847c17,10.129,34.325,20.16,51.786,30.416C114.386,110.001,97,120.04,80,130.207z"/>
</svg>
